<?xml version="1.0" encoding="utf-8"?>
<!-- Generator: Adobe Illustrator 24.0.1, SVG Export Plug-In . SVG Version: 6.00 Build 0)  -->
<svg version="1.1" id="Layer_1" xmlns="http://www.w3.org/2000/svg" xmlns:xlink="http://www.w3.org/1999/xlink" x="0px" y="0px"
	 viewBox="0 0 56 56" style="enable-background:new 0 0 56 56;" xml:space="preserve">
<style type="text/css">
	.st0{fill-rule:evenodd;clip-rule:evenodd;fill:#0A0A0A;}
</style>
<g id="Page-2">
	<g id="modal-mallit" transform="translate(-362.000000, -20.000000)">
		<path id="close-btn" class="st0" d="M398.31,39.69c0.92,0.92,0.92,2.41,0,3.32L393.33,48l4.99,4.99c0.92,0.92,0.92,2.41,0,3.32
			c-0.92,0.92-2.41,0.92-3.32,0L390,51.33l-4.99,4.99c-0.92,0.92-2.41,0.92-3.32,0c-0.92-0.92-0.92-2.41,0-3.32l4.99-4.99
			l-4.99-4.99c-0.92-0.92-0.92-2.41,0-3.32c0.92-0.92,2.41-0.92,3.32,0l4.99,4.99l4.99-4.99C395.9,38.77,397.39,38.77,398.31,39.69z
			"/>
	</g>
</g>
</svg>
