<?xml version="1.0" encoding="UTF-8"?>
<svg width="18px" height="18px" viewBox="0 0 18 18" version="1.1" xmlns="http://www.w3.org/2000/svg" xmlns:xlink="http://www.w3.org/1999/xlink">
    <title>close-btn</title>
    <g id="Page-2" stroke="none" stroke-width="1" fill="none" fill-rule="evenodd">
        <g id="modal-mallit" transform="translate(-362.000000, -20.000000)" fill="#0A0A0A">
            <path d="M379.311456,20.6885436 C380.229515,21.6066017 380.229515,23.095068 379.311456,24.0131262 L374.325,29 L379.311456,33.9868738 C380.229515,34.904932 380.229515,36.3933983 379.311456,37.3114564 C378.393398,38.2295145 376.904932,38.2295145 375.986874,37.3114564 L371,32.325 L366.013126,37.3114564 C365.095068,38.2295145 363.606602,38.2295145 362.688544,37.3114564 C361.770485,36.3933983 361.770485,34.904932 362.688544,33.9868738 L367.675,29 L362.688544,24.0131262 C361.770485,23.095068 361.770485,21.6066017 362.688544,20.6885436 C363.606602,19.7704855 365.095068,19.7704855 366.013126,20.6885436 L371,25.675 L375.986874,20.6885436 C376.904932,19.7704855 378.393398,19.7704855 379.311456,20.6885436 Z" id="close-btn"></path>
        </g>
    </g>
</svg>