<?xml version="1.0" encoding="UTF-8"?>
<svg width="80px" height="52px" viewBox="0 0 80 52" version="1.1" xmlns="http://www.w3.org/2000/svg" xmlns:xlink="http://www.w3.org/1999/xlink">
    <title>Frami H</title>
    <g id="Page-2" stroke="none" stroke-width="1" fill="none" fill-rule="evenodd">
        <g id="Frami-H" transform="translate(2.000000, 2.000000)">
            <path d="M62.0789474,0 C69.7673324,-1.41233342e-15 76,6.23266756 76,13.9210526 L76,14.0789474 C76,21.7673324 69.7673324,28 62.0789474,28 L48.082,28 L38.9090648,48.0165858 C38.6789528,48.5186485 38.0854079,48.739108 37.5833453,48.508996 C37.3655138,48.4091565 37.1907746,48.2344173 37.0909352,48.0165858 L27.917,28 L13.9210526,28 C6.23266756,28 -2.61115806e-15,21.7673324 0,14.0789474 L0,13.9210526 C-4.4942693e-15,6.23266756 6.23266756,1.41233342e-15 13.9210526,0 L62.0789474,0 Z" id="Combined-Shape" stroke="#FFFFFF" stroke-width="2.42105263" fill="#FFE400"></path>
            <path d="M12.1325,20 L12.1325,15.395 L15.8825,15.395 L15.8825,14.075 L12.1325,14.075 L12.1325,10.79 L16.6775,10.79 L16.6775,9.41 L10.4225,9.41 L10.4225,20 L12.1325,20 Z M19.9175,20 L19.9175,15.815 C19.9175,14.975 20.145,14.3725 20.6,14.0075 C21.055,13.6425 21.6575,13.46 22.4075,13.46 L22.4075,13.46 L22.9175,13.46 L22.9175,11.6 C22.2375,11.6 21.6375,11.7575 21.1175,12.0725 C20.5975,12.3875 20.1975,12.815 19.9175,13.355 L19.9175,13.355 L19.9175,11.735 L18.2075,11.735 L18.2075,20 L19.9175,20 Z M27.5075,20.105 C28.2575,20.105 28.8975,19.92 29.4275,19.55 C29.9575,19.18 30.3325,18.69 30.5525,18.08 L30.5525,18.08 L30.5525,20 L32.2625,20 L32.2625,11.735 L30.5525,11.735 L30.5525,13.655 C30.3325,13.045 29.9575,12.555 29.4275,12.185 C28.8975,11.815 28.2575,11.63 27.5075,11.63 C26.7875,11.63 26.145,11.8 25.58,12.14 C25.015,12.48 24.5725,12.97 24.2525,13.61 C23.9325,14.25 23.7725,15 23.7725,15.86 C23.7725,16.73 23.9325,17.485 24.2525,18.125 C24.5725,18.765 25.015,19.255 25.58,19.595 C26.145,19.935 26.7875,20.105 27.5075,20.105 Z M28.0325,18.59 C27.2725,18.59 26.665,18.3475 26.21,17.8625 C25.755,17.3775 25.5275,16.71 25.5275,15.86 C25.5275,15.01 25.755,14.3425 26.21,13.8575 C26.665,13.3725 27.2725,13.13 28.0325,13.13 C28.5125,13.13 28.9425,13.2425 29.3225,13.4675 C29.7025,13.6925 30.0025,14.0125 30.2225,14.4275 C30.4425,14.8425 30.5525,15.32 30.5525,15.86 C30.5525,16.41 30.4425,16.89 30.2225,17.3 C30.0025,17.71 29.7025,18.0275 29.3225,18.2525 C28.9425,18.4775 28.5125,18.59 28.0325,18.59 Z M36.0275,11.735 L34.3175,11.735 L34.3175,20 L36.0275,20 L36.0275,15.605 C36.0275,14.785 36.225,14.1625 36.62,13.7375 C37.015,13.3125 37.5475,13.1 38.2175,13.1 C38.8475,13.1 39.3425,13.2975 39.7025,13.6925 C40.0625,14.0875 40.2425,14.645 40.2425,15.365 L40.2425,15.365 L40.2425,20 L41.9525,20 L41.9525,15.605 C41.9525,14.785 42.15,14.1625 42.545,13.7375 C42.94,13.3125 43.4725,13.1 44.1425,13.1 C44.7725,13.1 45.2675,13.2975 45.6275,13.6925 C45.9875,14.0875 46.1675,14.645 46.1675,15.365 L46.1675,15.365 L46.1675,20 L47.8775,20 L47.8775,15.185 C47.8775,14.035 47.585,13.15 47,12.53 C46.415,11.91 45.6325,11.6 44.6525,11.6 C43.9825,11.6 43.3825,11.775 42.8525,12.125 C42.3225,12.475 41.9375,12.96 41.6975,13.58 C41.4675,12.94 41.1,12.45 40.595,12.11 C40.09,11.77 39.4925,11.6 38.8025,11.6 C38.1425,11.6 37.5675,11.76 37.0775,12.08 C36.5875,12.4 36.2375,12.86 36.0275,13.46 L36.027,13.459 L36.0275,11.735 Z M50.7275,10.31 C51.0575,10.31 51.325,10.22 51.53,10.04 C51.735,9.86 51.8375,9.625 51.8375,9.335 C51.8375,9.045 51.735,8.805 51.53,8.615 C51.325,8.425 51.0575,8.33 50.7275,8.33 C50.3975,8.33 50.1325,8.425 49.9325,8.615 C49.7325,8.805 49.6325,9.045 49.6325,9.335 C49.6325,9.625 49.7325,9.86 49.9325,10.04 C50.1325,10.22 50.3975,10.31 50.7275,10.31 Z M51.5825,20 L51.5825,11.735 L49.8725,11.735 L49.8725,20 L51.5825,20 Z M58.8725,20 L58.8725,15.245 L63.8525,15.245 L63.8525,20 L65.5775,20 L65.5775,9.41 L63.8525,9.41 L63.8525,13.85 L58.8725,13.85 L58.8725,9.41 L57.1625,9.41 L57.1625,20 L58.8725,20 Z" id="FramiH" fill="#0A0A0A" fill-rule="nonzero"></path>
        </g>
    </g>
</svg>