<?xml version="1.0" encoding="UTF-8"?>
<svg width="108px" height="52px" viewBox="0 0 108 52" version="1.1" xmlns="http://www.w3.org/2000/svg" xmlns:xlink="http://www.w3.org/1999/xlink">
    <title>Frami F</title>
    <g id="Page-2" stroke="none" stroke-width="1" fill="none" fill-rule="evenodd">
        <g id="Frami-F" transform="translate(2.000000, 2.000000)">
            <path d="M90.0789474,-1.42108547e-14 C97.7673324,-2.0675489e-14 104,6.23266756 104,13.9210526 L104,14.0789474 C104,21.7673324 97.7673324,28 90.0789474,28 L62.082,28 L52.9090648,48.0165858 C52.6789528,48.5186485 52.0854079,48.739108 51.5833453,48.508996 C51.3655138,48.4091565 51.1907746,48.2344173 51.0909352,48.0165858 L41.917,28 L13.9210526,28 C6.23266756,28 2.71791246e-15,21.7673324 0,14.0789474 L0,13.9210526 C-9.41555617e-16,6.23266756 6.23266756,-1.10221645e-14 13.9210526,-1.42108547e-14 L90.0789474,-1.42108547e-14 Z" id="Combined-Shape" stroke="#FFFFFF" stroke-width="2.42105263" fill="#FFE400"></path>
            <g id="Group-7" transform="translate(13.000000, 6.000000)">
                <g id="Group-4" fill="#000000">
                    <path d="M0.0451974758,11.8907368 C1.03803958,5.84305263 7.25625011,0.192947368 14.3779343,-6.7314575e-15 C13.1517238,0.112421053 11.9640396,0.523263158 10.9273027,1.17631579 C6.64488169,4.22842105 5.79730274,10.0171579 1.71825011,13.2628421 C1.31751327,13.5821053 0.863723792,13.8382105 0.398565897,14.0592632 C0.0174080022,13.4368421 -0.0653288399,12.5611579 0.0451974758,11.8907368" id="Fill-5"></path>
                    <path d="M3.03070274,15.5661158 C2.33122905,15.5661158 1.68638695,15.3305368 1.17133432,14.9345368 C2.29807116,14.8028526 3.33733432,14.2767474 4.24522905,13.6199053 C8.32428169,10.3739053 9.16965011,4.58232632 13.4527027,1.53053684 C14.7499659,0.713273684 16.2837554,0.274010526 17.8352291,0.326747368 L17.8352291,7.64485263 C17.8352291,11.8435895 14.2658606,15.5661158 10.8878606,15.5661158 L3.03070274,15.5661158 Z" id="Fill-7"></path>
                </g>
                <path d="M26.71,13.67 L26.71,9.065 L30.46,9.065 L30.46,7.745 L26.71,7.745 L26.71,4.46 L31.255,4.46 L31.255,3.08 L25,3.08 L25,13.67 L26.71,13.67 Z M34.495,13.67 L34.495,9.485 C34.495,8.645 34.7225,8.0425 35.1775,7.6775 C35.6325,7.3125 36.235,7.13 36.985,7.13 L36.985,7.13 L37.495,7.13 L37.495,5.27 C36.815,5.27 36.215,5.4275 35.695,5.7425 C35.175,6.0575 34.775,6.485 34.495,7.025 L34.495,7.025 L34.495,5.405 L32.785,5.405 L32.785,13.67 L34.495,13.67 Z M42.085,13.775 C42.835,13.775 43.475,13.59 44.005,13.22 C44.535,12.85 44.91,12.36 45.13,11.75 L45.13,11.75 L45.13,13.67 L46.84,13.67 L46.84,5.405 L45.13,5.405 L45.13,7.325 C44.91,6.715 44.535,6.225 44.005,5.855 C43.475,5.485 42.835,5.3 42.085,5.3 C41.365,5.3 40.7225,5.47 40.1575,5.81 C39.5925,6.15 39.15,6.64 38.83,7.28 C38.51,7.92 38.35,8.67 38.35,9.53 C38.35,10.4 38.51,11.155 38.83,11.795 C39.15,12.435 39.5925,12.925 40.1575,13.265 C40.7225,13.605 41.365,13.775 42.085,13.775 Z M42.61,12.26 C41.85,12.26 41.2425,12.0175 40.7875,11.5325 C40.3325,11.0475 40.105,10.38 40.105,9.53 C40.105,8.68 40.3325,8.0125 40.7875,7.5275 C41.2425,7.0425 41.85,6.8 42.61,6.8 C43.09,6.8 43.52,6.9125 43.9,7.1375 C44.28,7.3625 44.58,7.6825 44.8,8.0975 C45.02,8.5125 45.13,8.99 45.13,9.53 C45.13,10.08 45.02,10.56 44.8,10.97 C44.58,11.38 44.28,11.6975 43.9,11.9225 C43.52,12.1475 43.09,12.26 42.61,12.26 Z M50.605,5.405 L48.895,5.405 L48.895,13.67 L50.605,13.67 L50.605,9.275 C50.605,8.455 50.8025,7.8325 51.1975,7.4075 C51.5925,6.9825 52.125,6.77 52.795,6.77 C53.425,6.77 53.92,6.9675 54.28,7.3625 C54.64,7.7575 54.82,8.315 54.82,9.035 L54.82,9.035 L54.82,13.67 L56.53,13.67 L56.53,9.275 C56.53,8.455 56.7275,7.8325 57.1225,7.4075 C57.5175,6.9825 58.05,6.77 58.72,6.77 C59.35,6.77 59.845,6.9675 60.205,7.3625 C60.565,7.7575 60.745,8.315 60.745,9.035 L60.745,9.035 L60.745,13.67 L62.455,13.67 L62.455,8.855 C62.455,7.705 62.1625,6.82 61.5775,6.2 C60.9925,5.58 60.21,5.27 59.23,5.27 C58.56,5.27 57.96,5.445 57.43,5.795 C56.9,6.145 56.515,6.63 56.275,7.25 C56.045,6.61 55.6775,6.12 55.1725,5.78 C54.6675,5.44 54.07,5.27 53.38,5.27 C52.72,5.27 52.145,5.43 51.655,5.75 C51.165,6.07 50.815,6.53 50.605,7.13 L50.6045,7.129 L50.605,5.405 Z M65.305,3.98 C65.635,3.98 65.9025,3.89 66.1075,3.71 C66.3125,3.53 66.415,3.295 66.415,3.005 C66.415,2.715 66.3125,2.475 66.1075,2.285 C65.9025,2.095 65.635,2 65.305,2 C64.975,2 64.71,2.095 64.51,2.285 C64.31,2.475 64.21,2.715 64.21,3.005 C64.21,3.295 64.31,3.53 64.51,3.71 C64.71,3.89 64.975,3.98 65.305,3.98 Z M66.16,13.67 L66.16,5.405 L64.45,5.405 L64.45,13.67 L66.16,13.67 Z M73.45,13.67 L73.45,9.065 L77.2,9.065 L77.2,7.745 L73.45,7.745 L73.45,4.46 L77.995,4.46 L77.995,3.08 L71.74,3.08 L71.74,13.67 L73.45,13.67 Z" id="FramiF" fill="#0A0A0A" fill-rule="nonzero"></path>
            </g>
        </g>
    </g>
</svg>