<?xml version="1.0" encoding="UTF-8"?>
<svg width="108px" height="52px" viewBox="0 0 108 52" version="1.1" xmlns="http://www.w3.org/2000/svg" xmlns:xlink="http://www.w3.org/1999/xlink">
    <title>Group 6</title>
    <g id="Page-2" stroke="none" stroke-width="1" fill="none" fill-rule="evenodd">
        <g id="Group-6" transform="translate(2.000000, 2.000000)">
            <path d="M90.0789474,-1.0658141e-14 C97.7673324,-1.71227753e-14 104,6.23266756 104,13.9210526 L104,14.0789474 C104,21.7673324 97.7673324,28 90.0789474,28 L62.082,28 L52.9090648,48.0165858 C52.6789528,48.5186485 52.0854079,48.739108 51.5833453,48.508996 C51.3655138,48.4091565 51.1907746,48.2344173 51.0909352,48.0165858 L41.917,28 L13.9210526,28 C6.23266756,28 2.71791246e-15,21.7673324 0,14.0789474 L0,13.9210526 C-9.41555617e-16,6.23266756 6.23266756,-7.46945077e-15 13.9210526,-1.0658141e-14 L90.0789474,-1.0658141e-14 Z" id="Combined-Shape" stroke="#FFFFFF" stroke-width="2.42105263" fill="#FFE400"></path>
            <path d="M39.71,19.67 L39.71,15.065 L43.46,15.065 L43.46,13.745 L39.71,13.745 L39.71,10.46 L44.255,10.46 L44.255,9.08 L38,9.08 L38,19.67 L39.71,19.67 Z M47.495,19.67 L47.495,15.485 C47.495,14.645 47.7225,14.0425 48.1775,13.6775 C48.6325,13.3125 49.235,13.13 49.985,13.13 L49.985,13.13 L50.495,13.13 L50.495,11.27 C49.815,11.27 49.215,11.4275 48.695,11.7425 C48.175,12.0575 47.775,12.485 47.495,13.025 L47.495,13.025 L47.495,11.405 L45.785,11.405 L45.785,19.67 L47.495,19.67 Z M55.085,19.775 C55.835,19.775 56.475,19.59 57.005,19.22 C57.535,18.85 57.91,18.36 58.13,17.75 L58.13,17.75 L58.13,19.67 L59.84,19.67 L59.84,11.405 L58.13,11.405 L58.13,13.325 C57.91,12.715 57.535,12.225 57.005,11.855 C56.475,11.485 55.835,11.3 55.085,11.3 C54.365,11.3 53.7225,11.47 53.1575,11.81 C52.5925,12.15 52.15,12.64 51.83,13.28 C51.51,13.92 51.35,14.67 51.35,15.53 C51.35,16.4 51.51,17.155 51.83,17.795 C52.15,18.435 52.5925,18.925 53.1575,19.265 C53.7225,19.605 54.365,19.775 55.085,19.775 Z M55.61,18.26 C54.85,18.26 54.2425,18.0175 53.7875,17.5325 C53.3325,17.0475 53.105,16.38 53.105,15.53 C53.105,14.68 53.3325,14.0125 53.7875,13.5275 C54.2425,13.0425 54.85,12.8 55.61,12.8 C56.09,12.8 56.52,12.9125 56.9,13.1375 C57.28,13.3625 57.58,13.6825 57.8,14.0975 C58.02,14.5125 58.13,14.99 58.13,15.53 C58.13,16.08 58.02,16.56 57.8,16.97 C57.58,17.38 57.28,17.6975 56.9,17.9225 C56.52,18.1475 56.09,18.26 55.61,18.26 Z M63.605,11.405 L61.895,11.405 L61.895,19.67 L63.605,19.67 L63.605,15.275 C63.605,14.455 63.8025,13.8325 64.1975,13.4075 C64.5925,12.9825 65.125,12.77 65.795,12.77 C66.425,12.77 66.92,12.9675 67.28,13.3625 C67.64,13.7575 67.82,14.315 67.82,15.035 L67.82,15.035 L67.82,19.67 L69.53,19.67 L69.53,15.275 C69.53,14.455 69.7275,13.8325 70.1225,13.4075 C70.5175,12.9825 71.05,12.77 71.72,12.77 C72.35,12.77 72.845,12.9675 73.205,13.3625 C73.565,13.7575 73.745,14.315 73.745,15.035 L73.745,15.035 L73.745,19.67 L75.455,19.67 L75.455,14.855 C75.455,13.705 75.1625,12.82 74.5775,12.2 C73.9925,11.58 73.21,11.27 72.23,11.27 C71.56,11.27 70.96,11.445 70.43,11.795 C69.9,12.145 69.515,12.63 69.275,13.25 C69.045,12.61 68.6775,12.12 68.1725,11.78 C67.6675,11.44 67.07,11.27 66.38,11.27 C65.72,11.27 65.145,11.43 64.655,11.75 C64.165,12.07 63.815,12.53 63.605,13.13 L63.605,13.129 L63.605,11.405 Z M78.305,9.98 C78.635,9.98 78.9025,9.89 79.1075,9.71 C79.3125,9.53 79.415,9.295 79.415,9.005 C79.415,8.715 79.3125,8.475 79.1075,8.285 C78.9025,8.095 78.635,8 78.305,8 C77.975,8 77.71,8.095 77.51,8.285 C77.31,8.475 77.21,8.715 77.21,9.005 C77.21,9.295 77.31,9.53 77.51,9.71 C77.71,9.89 77.975,9.98 78.305,9.98 Z M79.16,19.67 L79.16,11.405 L77.45,11.405 L77.45,19.67 L79.16,19.67 Z M85.775,19.67 L86.585,17.375 L91.055,17.375 L91.865,19.67 L93.695,19.67 L89.81,9.245 L87.845,9.245 L83.945,19.67 L85.775,19.67 Z M90.575,16.055 L87.065,16.055 L88.82,11.105 L90.575,16.055 Z" id="FramiA" fill="#0A0A0A" fill-rule="nonzero"></path>
            <g id="Group-4" transform="translate(13.000000, 6.000000)" fill="#000000">
                <path d="M0.0451974758,11.8907368 C1.03803958,5.84305263 7.25625011,0.192947368 14.3779343,-6.7314575e-15 C13.1517238,0.112421053 11.9640396,0.523263158 10.9273027,1.17631579 C6.64488169,4.22842105 5.79730274,10.0171579 1.71825011,13.2628421 C1.31751327,13.5821053 0.863723792,13.8382105 0.398565897,14.0592632 C0.0174080022,13.4368421 -0.0653288399,12.5611579 0.0451974758,11.8907368" id="Fill-5"></path>
                <path d="M3.03070274,15.5661158 C2.33122905,15.5661158 1.68638695,15.3305368 1.17133432,14.9345368 C2.29807116,14.8028526 3.33733432,14.2767474 4.24522905,13.6199053 C8.32428169,10.3739053 9.16965011,4.58232632 13.4527027,1.53053684 C14.7499659,0.713273684 16.2837554,0.274010526 17.8352291,0.326747368 L17.8352291,7.64485263 C17.8352291,11.8435895 14.2658606,15.5661158 10.8878606,15.5661158 L3.03070274,15.5661158 Z" id="Fill-7"></path>
            </g>
        </g>
    </g>
</svg>