<?xml version="1.0" encoding="UTF-8"?>
<svg width="80px" height="52px" viewBox="0 0 80 52" version="1.1" xmlns="http://www.w3.org/2000/svg" xmlns:xlink="http://www.w3.org/1999/xlink">
    <title>Frami E</title>
    <g id="Page-2" stroke="none" stroke-width="1" fill="none" fill-rule="evenodd">
        <g id="Frami-E" transform="translate(2.000000, 2.000000)">
            <path d="M62.0789474,0 C69.7673324,-1.41233342e-15 76,6.23266756 76,13.9210526 L76,14.0789474 C76,21.7673324 69.7673324,28 62.0789474,28 L48.082,28 L38.9090648,48.0165858 C38.6789528,48.5186485 38.0854079,48.739108 37.5833453,48.508996 C37.3655138,48.4091565 37.1907746,48.2344173 37.0909352,48.0165858 L27.917,28 L13.9210526,28 C6.23266756,28 -2.61115806e-15,21.7673324 0,14.0789474 L0,13.9210526 C-4.4942693e-15,6.23266756 6.23266756,1.41233342e-15 13.9210526,0 L62.0789474,0 Z" id="Combined-Shape" stroke="#FFFFFF" stroke-width="2.42105263" fill="#FFE400"></path>
            <path d="M14.0125,20 L14.0125,15.395 L17.7625,15.395 L17.7625,14.075 L14.0125,14.075 L14.0125,10.79 L18.5575,10.79 L18.5575,9.41 L12.3025,9.41 L12.3025,20 L14.0125,20 Z M21.7975,20 L21.7975,15.815 C21.7975,14.975 22.025,14.3725 22.48,14.0075 C22.935,13.6425 23.5375,13.46 24.2875,13.46 L24.2875,13.46 L24.7975,13.46 L24.7975,11.6 C24.1175,11.6 23.5175,11.7575 22.9975,12.0725 C22.4775,12.3875 22.0775,12.815 21.7975,13.355 L21.7975,13.355 L21.7975,11.735 L20.0875,11.735 L20.0875,20 L21.7975,20 Z M29.3875,20.105 C30.1375,20.105 30.7775,19.92 31.3075,19.55 C31.8375,19.18 32.2125,18.69 32.4325,18.08 L32.4325,18.08 L32.4325,20 L34.1425,20 L34.1425,11.735 L32.4325,11.735 L32.4325,13.655 C32.2125,13.045 31.8375,12.555 31.3075,12.185 C30.7775,11.815 30.1375,11.63 29.3875,11.63 C28.6675,11.63 28.025,11.8 27.46,12.14 C26.895,12.48 26.4525,12.97 26.1325,13.61 C25.8125,14.25 25.6525,15 25.6525,15.86 C25.6525,16.73 25.8125,17.485 26.1325,18.125 C26.4525,18.765 26.895,19.255 27.46,19.595 C28.025,19.935 28.6675,20.105 29.3875,20.105 Z M29.9125,18.59 C29.1525,18.59 28.545,18.3475 28.09,17.8625 C27.635,17.3775 27.4075,16.71 27.4075,15.86 C27.4075,15.01 27.635,14.3425 28.09,13.8575 C28.545,13.3725 29.1525,13.13 29.9125,13.13 C30.3925,13.13 30.8225,13.2425 31.2025,13.4675 C31.5825,13.6925 31.8825,14.0125 32.1025,14.4275 C32.3225,14.8425 32.4325,15.32 32.4325,15.86 C32.4325,16.41 32.3225,16.89 32.1025,17.3 C31.8825,17.71 31.5825,18.0275 31.2025,18.2525 C30.8225,18.4775 30.3925,18.59 29.9125,18.59 Z M37.9075,11.735 L36.1975,11.735 L36.1975,20 L37.9075,20 L37.9075,15.605 C37.9075,14.785 38.105,14.1625 38.5,13.7375 C38.895,13.3125 39.4275,13.1 40.0975,13.1 C40.7275,13.1 41.2225,13.2975 41.5825,13.6925 C41.9425,14.0875 42.1225,14.645 42.1225,15.365 L42.1225,15.365 L42.1225,20 L43.8325,20 L43.8325,15.605 C43.8325,14.785 44.03,14.1625 44.425,13.7375 C44.82,13.3125 45.3525,13.1 46.0225,13.1 C46.6525,13.1 47.1475,13.2975 47.5075,13.6925 C47.8675,14.0875 48.0475,14.645 48.0475,15.365 L48.0475,15.365 L48.0475,20 L49.7575,20 L49.7575,15.185 C49.7575,14.035 49.465,13.15 48.88,12.53 C48.295,11.91 47.5125,11.6 46.5325,11.6 C45.8625,11.6 45.2625,11.775 44.7325,12.125 C44.2025,12.475 43.8175,12.96 43.5775,13.58 C43.3475,12.94 42.98,12.45 42.475,12.11 C41.97,11.77 41.3725,11.6 40.6825,11.6 C40.0225,11.6 39.4475,11.76 38.9575,12.08 C38.4675,12.4 38.1175,12.86 37.9075,13.46 L37.907,13.459 L37.9075,11.735 Z M52.6075,10.31 C52.9375,10.31 53.205,10.22 53.41,10.04 C53.615,9.86 53.7175,9.625 53.7175,9.335 C53.7175,9.045 53.615,8.805 53.41,8.615 C53.205,8.425 52.9375,8.33 52.6075,8.33 C52.2775,8.33 52.0125,8.425 51.8125,8.615 C51.6125,8.805 51.5125,9.045 51.5125,9.335 C51.5125,9.625 51.6125,9.86 51.8125,10.04 C52.0125,10.22 52.2775,10.31 52.6075,10.31 Z M53.4625,20 L53.4625,11.735 L51.7525,11.735 L51.7525,20 L53.4625,20 Z M65.1025,20 L65.1025,18.605 L60.7525,18.605 L60.7525,15.32 L64.6525,15.32 L64.6525,14 L60.7525,14 L60.7525,10.79 L65.1025,10.79 L65.1025,9.41 L59.0425,9.41 L59.0425,20 L65.1025,20 Z" id="FramiE" fill="#0A0A0A" fill-rule="nonzero"></path>
        </g>
    </g>
</svg>