<?xml version="1.0" encoding="UTF-8"?>
<svg width="126px" height="52px" viewBox="0 0 126 52" version="1.1" xmlns="http://www.w3.org/2000/svg" xmlns:xlink="http://www.w3.org/1999/xlink">
    <title>Joupinmukka</title>
    <g id="Page-2" stroke="none" stroke-width="1" fill="none" fill-rule="evenodd">
        <g id="Joupinmukka" transform="translate(2.000000, 2.000000)">
            <path d="M108.078947,0 C115.767332,5.41632428e-15 122,6.23266756 122,13.9210526 L122,14.0789474 C122,21.7673324 115.767332,28 108.078947,28 L71.082,28 L61.9090648,48.0165858 C61.6789528,48.5186485 61.0854079,48.739108 60.5833453,48.508996 C60.3655138,48.4091565 60.1907746,48.2344173 60.0909352,48.0165858 L50.917,28 L13.9210526,28 C6.23266756,28 -6.16387174e-15,21.7673324 0,14.0789474 L0,13.9210526 C-9.41555617e-16,6.23266756 6.23266756,1.41233342e-15 13.9210526,0 L108.078947,0 Z" id="Combined-Shape" stroke="#FFFFFF" stroke-width="2.42105263" fill="#FFE400"></path>
            <path d="M14.2275,19.105 C15.1675,19.105 15.9025,18.84 16.4325,18.31 C16.9625,17.78 17.2275,17.04 17.2275,16.09 L17.2275,16.09 L17.2275,8.41 L15.5175,8.41 L15.5175,16.09 C15.5175,16.52 15.4075,16.87 15.1875,17.14 C14.9675,17.41 14.6225,17.545 14.1525,17.545 C13.6425,17.545 13.265,17.385 13.02,17.065 C12.775,16.745 12.6525,16.295 12.6525,15.715 L12.6525,15.715 L10.9575,15.715 C10.9575,16.795 11.2475,17.63 11.8275,18.22 C12.4075,18.81 13.2075,19.105 14.2275,19.105 Z M23.0025,19.105 C23.8025,19.105 24.5225,18.935 25.1625,18.595 C25.8025,18.255 26.3025,17.765 26.6625,17.125 C27.0225,16.485 27.2025,15.73 27.2025,14.86 C27.2025,14 27.0225,13.25 26.6625,12.61 C26.3025,11.97 25.8025,11.48 25.1625,11.14 C24.5225,10.8 23.8025,10.63 23.0025,10.63 C22.2025,10.63 21.485,10.8 20.85,11.14 C20.215,11.48 19.715,11.97 19.35,12.61 C18.985,13.25 18.8025,14 18.8025,14.86 C18.8025,15.72 18.985,16.4725 19.35,17.1175 C19.715,17.7625 20.215,18.255 20.85,18.595 C21.485,18.935 22.2025,19.105 23.0025,19.105 Z M23.0025,17.605 C22.5625,17.605 22.1575,17.505 21.7875,17.305 C21.4175,17.105 21.12,16.8 20.895,16.39 C20.67,15.98 20.5575,15.47 20.5575,14.86 C20.5575,14.26 20.67,13.7525 20.895,13.3375 C21.12,12.9225 21.4175,12.615 21.7875,12.415 C22.1575,12.215 22.5625,12.115 23.0025,12.115 C23.4425,12.115 23.8475,12.215 24.2175,12.415 C24.5875,12.615 24.885,12.9225 25.11,13.3375 C25.335,13.7525 25.4475,14.26 25.4475,14.86 C25.4475,15.47 25.335,15.98 25.11,16.39 C24.885,16.8 24.5875,17.105 24.2175,17.305 C23.8475,17.505 23.4425,17.605 23.0025,17.605 Z M31.8375,19.12 C32.5275,19.12 33.1325,18.9525 33.6525,18.6175 C34.1725,18.2825 34.5375,17.81 34.7475,17.2 L34.7475,17.2 L34.7475,19 L36.4725,19 L36.4725,10.735 L34.7475,10.735 L34.7475,15.115 C34.7475,15.955 34.5425,16.595 34.1325,17.035 C33.7225,17.475 33.1775,17.695 32.4975,17.695 C31.8375,17.695 31.3175,17.4925 30.9375,17.0875 C30.5575,16.6825 30.3675,16.105 30.3675,15.355 L30.3675,15.355 L30.3675,10.735 L28.6575,10.735 L28.6575,15.535 C28.6575,16.685 28.9475,17.57 29.5275,18.19 C30.1075,18.81 30.8775,19.12 31.8375,19.12 Z M40.2375,22.93 L40.2375,17.08 C40.4475,17.69 40.8175,18.18 41.3475,18.55 C41.8775,18.92 42.5175,19.105 43.2675,19.105 C43.9875,19.105 44.63,18.935 45.195,18.595 C45.76,18.255 46.2025,17.765 46.5225,17.125 C46.8425,16.485 47.0025,15.73 47.0025,14.86 C47.0025,14 46.8425,13.25 46.5225,12.61 C46.2025,11.97 45.76,11.48 45.195,11.14 C44.63,10.8 43.9875,10.63 43.2675,10.63 C42.5175,10.63 41.8775,10.815 41.3475,11.185 C40.8175,11.555 40.4475,12.045 40.2375,12.655 L40.2375,12.655 L40.2375,10.735 L38.5275,10.735 L38.5275,22.93 L40.2375,22.93 Z M42.7425,17.59 C42.2625,17.59 41.8325,17.4775 41.4525,17.2525 C41.0725,17.0275 40.7725,16.71 40.5525,16.3 C40.3325,15.89 40.2225,15.41 40.2225,14.86 C40.2225,14.32 40.3325,13.8425 40.5525,13.4275 C40.7725,13.0125 41.0725,12.6925 41.4525,12.4675 C41.8325,12.2425 42.2625,12.13 42.7425,12.13 C43.5025,12.13 44.1125,12.375 44.5725,12.865 C45.0325,13.355 45.2625,14.02 45.2625,14.86 C45.2625,15.71 45.0325,16.3775 44.5725,16.8625 C44.1125,17.3475 43.5025,17.59 42.7425,17.59 Z M49.5075,9.31 C49.8375,9.31 50.105,9.22 50.31,9.04 C50.515,8.86 50.6175,8.625 50.6175,8.335 C50.6175,8.045 50.515,7.805 50.31,7.615 C50.105,7.425 49.8375,7.33 49.5075,7.33 C49.1775,7.33 48.9125,7.425 48.7125,7.615 C48.5125,7.805 48.4125,8.045 48.4125,8.335 C48.4125,8.625 48.5125,8.86 48.7125,9.04 C48.9125,9.22 49.1775,9.31 49.5075,9.31 Z M50.3625,19 L50.3625,10.735 L48.6525,10.735 L48.6525,19 L50.3625,19 Z M54.1425,19 L54.1425,14.605 C54.1425,13.765 54.3475,13.1275 54.7575,12.6925 C55.1675,12.2575 55.7125,12.04 56.3925,12.04 C57.0525,12.04 57.5725,12.2425 57.9525,12.6475 C58.3325,13.0525 58.5225,13.625 58.5225,14.365 L58.5225,14.365 L58.5225,19 L60.2325,19 L60.2325,14.185 C60.2325,13.035 59.9425,12.15 59.3625,11.53 C58.7825,10.91 58.0125,10.6 57.0525,10.6 C56.3725,10.6 55.7725,10.77 55.2525,11.11 C54.7325,11.45 54.3625,11.93 54.1425,12.55 L54.1425,12.55 L54.1425,10.735 L52.4325,10.735 L52.4325,19 L54.1425,19 Z M63.9375,10.735 L62.2275,10.735 L62.2275,19 L63.9375,19 L63.9375,14.605 C63.9375,13.785 64.135,13.1625 64.53,12.7375 C64.925,12.3125 65.4575,12.1 66.1275,12.1 C66.7575,12.1 67.2525,12.2975 67.6125,12.6925 C67.9725,13.0875 68.1525,13.645 68.1525,14.365 L68.1525,14.365 L68.1525,19 L69.8625,19 L69.8625,14.605 C69.8625,13.785 70.06,13.1625 70.455,12.7375 C70.85,12.3125 71.3825,12.1 72.0525,12.1 C72.6825,12.1 73.1775,12.2975 73.5375,12.6925 C73.8975,13.0875 74.0775,13.645 74.0775,14.365 L74.0775,14.365 L74.0775,19 L75.7875,19 L75.7875,14.185 C75.7875,13.035 75.495,12.15 74.91,11.53 C74.325,10.91 73.5425,10.6 72.5625,10.6 C71.8925,10.6 71.2925,10.775 70.7625,11.125 C70.2325,11.475 69.8475,11.96 69.6075,12.58 C69.3775,11.94 69.01,11.45 68.505,11.11 C68,10.77 67.4025,10.6 66.7125,10.6 C66.0525,10.6 65.4775,10.76 64.9875,11.08 C64.4975,11.4 64.1475,11.86 63.9375,12.46 L63.937,12.459 L63.9375,10.735 Z M80.7675,19.12 C81.4575,19.12 82.0625,18.9525 82.5825,18.6175 C83.1025,18.2825 83.4675,17.81 83.6775,17.2 L83.6775,17.2 L83.6775,19 L85.4025,19 L85.4025,10.735 L83.6775,10.735 L83.6775,15.115 C83.6775,15.955 83.4725,16.595 83.0625,17.035 C82.6525,17.475 82.1075,17.695 81.4275,17.695 C80.7675,17.695 80.2475,17.4925 79.8675,17.0875 C79.4875,16.6825 79.2975,16.105 79.2975,15.355 L79.2975,15.355 L79.2975,10.735 L77.5875,10.735 L77.5875,15.535 C77.5875,16.685 77.8775,17.57 78.4575,18.19 C79.0375,18.81 79.8075,19.12 80.7675,19.12 Z M89.1675,19 L89.1675,15.325 L92.1375,19 L94.2525,19 L90.5625,14.845 L94.1625,10.735 L92.1075,10.735 L89.1675,14.26 L89.1675,7.9 L87.4575,7.9 L87.4575,19 L89.1675,19 Z M97.0725,19 L97.0725,15.325 L100.0425,19 L102.1575,19 L98.4675,14.845 L102.0675,10.735 L100.0125,10.735 L97.0725,14.26 L97.0725,7.9 L95.3625,7.9 L95.3625,19 L97.0725,19 Z M106.5825,19.105 C107.3325,19.105 107.9725,18.92 108.5025,18.55 C109.0325,18.18 109.4075,17.69 109.6275,17.08 L109.6275,17.08 L109.6275,19 L111.3375,19 L111.3375,10.735 L109.6275,10.735 L109.6275,12.655 C109.4075,12.045 109.0325,11.555 108.5025,11.185 C107.9725,10.815 107.3325,10.63 106.5825,10.63 C105.8625,10.63 105.22,10.8 104.655,11.14 C104.09,11.48 103.6475,11.97 103.3275,12.61 C103.0075,13.25 102.8475,14 102.8475,14.86 C102.8475,15.73 103.0075,16.485 103.3275,17.125 C103.6475,17.765 104.09,18.255 104.655,18.595 C105.22,18.935 105.8625,19.105 106.5825,19.105 Z M107.1075,17.59 C106.3475,17.59 105.74,17.3475 105.285,16.8625 C104.83,16.3775 104.6025,15.71 104.6025,14.86 C104.6025,14.01 104.83,13.3425 105.285,12.8575 C105.74,12.3725 106.3475,12.13 107.1075,12.13 C107.5875,12.13 108.0175,12.2425 108.3975,12.4675 C108.7775,12.6925 109.0775,13.0125 109.2975,13.4275 C109.5175,13.8425 109.6275,14.32 109.6275,14.86 C109.6275,15.41 109.5175,15.89 109.2975,16.3 C109.0775,16.71 108.7775,17.0275 108.3975,17.2525 C108.0175,17.4775 107.5875,17.59 107.1075,17.59 Z" fill="#0A0A0A" fill-rule="nonzero"></path>
        </g>
    </g>
</svg>