<?xml version="1.0" encoding="UTF-8"?>
<svg width="154px" height="52px" viewBox="0 0 154 52" version="1.1" xmlns="http://www.w3.org/2000/svg" xmlns:xlink="http://www.w3.org/1999/xlink">
    <title>Joupinmutka</title>
    <g id="Page-2" stroke="none" stroke-width="1" fill="none" fill-rule="evenodd">
        <g id="Joupinmutka" transform="translate(2.000000, 2.000000)">
            <path d="M136.078947,-1.42108547e-14 C143.767332,-1.56231881e-14 150,6.23266756 150,13.9210526 L150,14.0789474 C150,21.7673324 143.767332,28 136.078947,28 L85.082,28 L75.9090648,48.0165858 C75.6789528,48.5186485 75.0854079,48.739108 74.5833453,48.508996 C74.3655138,48.4091565 74.1907746,48.2344173 74.0909352,48.0165858 L64.917,28 L13.9210526,28 C6.23266756,28 2.71791246e-15,21.7673324 0,14.0789474 L0,13.9210526 C-2.71791246e-15,6.23266756 6.23266756,-1.27985213e-14 13.9210526,-1.42108547e-14 L136.078947,-1.42108547e-14 Z" id="Combined-Shape" stroke="#FFFFFF" stroke-width="2.42105263" fill="#FFE400"></path>
            <path d="M40.2275,19.105 C41.1675,19.105 41.9025,18.84 42.4325,18.31 C42.9625,17.78 43.2275,17.04 43.2275,16.09 L43.2275,16.09 L43.2275,8.41 L41.5175,8.41 L41.5175,16.09 C41.5175,16.52 41.4075,16.87 41.1875,17.14 C40.9675,17.41 40.6225,17.545 40.1525,17.545 C39.6425,17.545 39.265,17.385 39.02,17.065 C38.775,16.745 38.6525,16.295 38.6525,15.715 L38.6525,15.715 L36.9575,15.715 C36.9575,16.795 37.2475,17.63 37.8275,18.22 C38.4075,18.81 39.2075,19.105 40.2275,19.105 Z M49.0025,19.105 C49.8025,19.105 50.5225,18.935 51.1625,18.595 C51.8025,18.255 52.3025,17.765 52.6625,17.125 C53.0225,16.485 53.2025,15.73 53.2025,14.86 C53.2025,14 53.0225,13.25 52.6625,12.61 C52.3025,11.97 51.8025,11.48 51.1625,11.14 C50.5225,10.8 49.8025,10.63 49.0025,10.63 C48.2025,10.63 47.485,10.8 46.85,11.14 C46.215,11.48 45.715,11.97 45.35,12.61 C44.985,13.25 44.8025,14 44.8025,14.86 C44.8025,15.72 44.985,16.4725 45.35,17.1175 C45.715,17.7625 46.215,18.255 46.85,18.595 C47.485,18.935 48.2025,19.105 49.0025,19.105 Z M49.0025,17.605 C48.5625,17.605 48.1575,17.505 47.7875,17.305 C47.4175,17.105 47.12,16.8 46.895,16.39 C46.67,15.98 46.5575,15.47 46.5575,14.86 C46.5575,14.26 46.67,13.7525 46.895,13.3375 C47.12,12.9225 47.4175,12.615 47.7875,12.415 C48.1575,12.215 48.5625,12.115 49.0025,12.115 C49.4425,12.115 49.8475,12.215 50.2175,12.415 C50.5875,12.615 50.885,12.9225 51.11,13.3375 C51.335,13.7525 51.4475,14.26 51.4475,14.86 C51.4475,15.47 51.335,15.98 51.11,16.39 C50.885,16.8 50.5875,17.105 50.2175,17.305 C49.8475,17.505 49.4425,17.605 49.0025,17.605 Z M57.8375,19.12 C58.5275,19.12 59.1325,18.9525 59.6525,18.6175 C60.1725,18.2825 60.5375,17.81 60.7475,17.2 L60.7475,17.2 L60.7475,19 L62.4725,19 L62.4725,10.735 L60.7475,10.735 L60.7475,15.115 C60.7475,15.955 60.5425,16.595 60.1325,17.035 C59.7225,17.475 59.1775,17.695 58.4975,17.695 C57.8375,17.695 57.3175,17.4925 56.9375,17.0875 C56.5575,16.6825 56.3675,16.105 56.3675,15.355 L56.3675,15.355 L56.3675,10.735 L54.6575,10.735 L54.6575,15.535 C54.6575,16.685 54.9475,17.57 55.5275,18.19 C56.1075,18.81 56.8775,19.12 57.8375,19.12 Z M66.2375,22.93 L66.2375,17.08 C66.4475,17.69 66.8175,18.18 67.3475,18.55 C67.8775,18.92 68.5175,19.105 69.2675,19.105 C69.9875,19.105 70.63,18.935 71.195,18.595 C71.76,18.255 72.2025,17.765 72.5225,17.125 C72.8425,16.485 73.0025,15.73 73.0025,14.86 C73.0025,14 72.8425,13.25 72.5225,12.61 C72.2025,11.97 71.76,11.48 71.195,11.14 C70.63,10.8 69.9875,10.63 69.2675,10.63 C68.5175,10.63 67.8775,10.815 67.3475,11.185 C66.8175,11.555 66.4475,12.045 66.2375,12.655 L66.2375,12.655 L66.2375,10.735 L64.5275,10.735 L64.5275,22.93 L66.2375,22.93 Z M68.7425,17.59 C68.2625,17.59 67.8325,17.4775 67.4525,17.2525 C67.0725,17.0275 66.7725,16.71 66.5525,16.3 C66.3325,15.89 66.2225,15.41 66.2225,14.86 C66.2225,14.32 66.3325,13.8425 66.5525,13.4275 C66.7725,13.0125 67.0725,12.6925 67.4525,12.4675 C67.8325,12.2425 68.2625,12.13 68.7425,12.13 C69.5025,12.13 70.1125,12.375 70.5725,12.865 C71.0325,13.355 71.2625,14.02 71.2625,14.86 C71.2625,15.71 71.0325,16.3775 70.5725,16.8625 C70.1125,17.3475 69.5025,17.59 68.7425,17.59 Z M75.5075,9.31 C75.8375,9.31 76.105,9.22 76.31,9.04 C76.515,8.86 76.6175,8.625 76.6175,8.335 C76.6175,8.045 76.515,7.805 76.31,7.615 C76.105,7.425 75.8375,7.33 75.5075,7.33 C75.1775,7.33 74.9125,7.425 74.7125,7.615 C74.5125,7.805 74.4125,8.045 74.4125,8.335 C74.4125,8.625 74.5125,8.86 74.7125,9.04 C74.9125,9.22 75.1775,9.31 75.5075,9.31 Z M76.3625,19 L76.3625,10.735 L74.6525,10.735 L74.6525,19 L76.3625,19 Z M80.1425,19 L80.1425,14.605 C80.1425,13.765 80.3475,13.1275 80.7575,12.6925 C81.1675,12.2575 81.7125,12.04 82.3925,12.04 C83.0525,12.04 83.5725,12.2425 83.9525,12.6475 C84.3325,13.0525 84.5225,13.625 84.5225,14.365 L84.5225,14.365 L84.5225,19 L86.2325,19 L86.2325,14.185 C86.2325,13.035 85.9425,12.15 85.3625,11.53 C84.7825,10.91 84.0125,10.6 83.0525,10.6 C82.3725,10.6 81.7725,10.77 81.2525,11.11 C80.7325,11.45 80.3625,11.93 80.1425,12.55 L80.1425,12.55 L80.1425,10.735 L78.4325,10.735 L78.4325,19 L80.1425,19 Z M89.9375,10.735 L88.2275,10.735 L88.2275,19 L89.9375,19 L89.9375,14.605 C89.9375,13.785 90.135,13.1625 90.53,12.7375 C90.925,12.3125 91.4575,12.1 92.1275,12.1 C92.7575,12.1 93.2525,12.2975 93.6125,12.6925 C93.9725,13.0875 94.1525,13.645 94.1525,14.365 L94.1525,14.365 L94.1525,19 L95.8625,19 L95.8625,14.605 C95.8625,13.785 96.06,13.1625 96.455,12.7375 C96.85,12.3125 97.3825,12.1 98.0525,12.1 C98.6825,12.1 99.1775,12.2975 99.5375,12.6925 C99.8975,13.0875 100.0775,13.645 100.0775,14.365 L100.0775,14.365 L100.0775,19 L101.7875,19 L101.7875,14.185 C101.7875,13.035 101.495,12.15 100.91,11.53 C100.325,10.91 99.5425,10.6 98.5625,10.6 C97.8925,10.6 97.2925,10.775 96.7625,11.125 C96.2325,11.475 95.8475,11.96 95.6075,12.58 C95.3775,11.94 95.01,11.45 94.505,11.11 C94,10.77 93.4025,10.6 92.7125,10.6 C92.0525,10.6 91.4775,10.76 90.9875,11.08 C90.4975,11.4 90.1475,11.86 89.9375,12.46 L89.937,12.459 L89.9375,10.735 Z M106.7675,19.12 C107.4575,19.12 108.0625,18.9525 108.5825,18.6175 C109.1025,18.2825 109.4675,17.81 109.6775,17.2 L109.6775,17.2 L109.6775,19 L111.4025,19 L111.4025,10.735 L109.6775,10.735 L109.6775,15.115 C109.6775,15.955 109.4725,16.595 109.0625,17.035 C108.6525,17.475 108.1075,17.695 107.4275,17.695 C106.7675,17.695 106.2475,17.4925 105.8675,17.0875 C105.4875,16.6825 105.2975,16.105 105.2975,15.355 L105.2975,15.355 L105.2975,10.735 L103.5875,10.735 L103.5875,15.535 C103.5875,16.685 103.8775,17.57 104.4575,18.19 C105.0375,18.81 105.8075,19.12 106.7675,19.12 Z M115.1675,19 L115.1675,15.325 L118.1375,19 L120.2525,19 L116.5625,14.845 L120.1625,10.735 L118.1075,10.735 L115.1675,14.26 L115.1675,7.9 L113.4575,7.9 L113.4575,19 L115.1675,19 Z M123.0725,19 L123.0725,15.325 L126.0425,19 L128.1575,19 L124.4675,14.845 L128.0675,10.735 L126.0125,10.735 L123.0725,14.26 L123.0725,7.9 L121.3625,7.9 L121.3625,19 L123.0725,19 Z M132.5825,19.105 C133.3325,19.105 133.9725,18.92 134.5025,18.55 C135.0325,18.18 135.4075,17.69 135.6275,17.08 L135.6275,17.08 L135.6275,19 L137.3375,19 L137.3375,10.735 L135.6275,10.735 L135.6275,12.655 C135.4075,12.045 135.0325,11.555 134.5025,11.185 C133.9725,10.815 133.3325,10.63 132.5825,10.63 C131.8625,10.63 131.22,10.8 130.655,11.14 C130.09,11.48 129.6475,11.97 129.3275,12.61 C129.0075,13.25 128.8475,14 128.8475,14.86 C128.8475,15.73 129.0075,16.485 129.3275,17.125 C129.6475,17.765 130.09,18.255 130.655,18.595 C131.22,18.935 131.8625,19.105 132.5825,19.105 Z M133.1075,17.59 C132.3475,17.59 131.74,17.3475 131.285,16.8625 C130.83,16.3775 130.6025,15.71 130.6025,14.86 C130.6025,14.01 130.83,13.3425 131.285,12.8575 C131.74,12.3725 132.3475,12.13 133.1075,12.13 C133.5875,12.13 134.0175,12.2425 134.3975,12.4675 C134.7775,12.6925 135.0775,13.0125 135.2975,13.4275 C135.5175,13.8425 135.6275,14.32 135.6275,14.86 C135.6275,15.41 135.5175,15.89 135.2975,16.3 C135.0775,16.71 134.7775,17.0275 134.3975,17.2525 C134.0175,17.4775 133.5875,17.59 133.1075,17.59 Z" id="Joupinmukka" fill="#0A0A0A" fill-rule="nonzero"></path>
            <path d="M16.5,5 L21,7.34782609 L21,10.0753915 L25.5,7.73913043 L30,10.0753915 L30,23 L12,23 L12,7.34782609 L16.5,5 Z M15.5217391,17.9130435 L13.9565217,17.9130435 L13.9565217,19.4782609 L15.5217391,19.4782609 L15.5217391,17.9130435 Z M19.0434783,17.9130435 L17.4782609,17.9130435 L17.4782609,19.4782609 L19.0434783,19.4782609 L19.0434783,17.9130435 Z M24.5217391,17.9130435 L22.9565217,17.9130435 L22.9565217,19.4782609 L24.5217391,19.4782609 L24.5217391,17.9130435 Z M28.0434783,17.9130435 L26.4782609,17.9130435 L26.4782609,19.4782609 L28.0434783,19.4782609 L28.0434783,17.9130435 Z M15.5217391,14.7826087 L13.9565217,14.7826087 L13.9565217,16.3478261 L15.5217391,16.3478261 L15.5217391,14.7826087 Z M19.0434783,14.7826087 L17.4782609,14.7826087 L17.4782609,16.3478261 L19.0434783,16.3478261 L19.0434783,14.7826087 Z M24.5217391,14.7826087 L22.9565217,14.7826087 L22.9565217,16.3478261 L24.5217391,16.3478261 L24.5217391,14.7826087 Z M28.0434783,14.7826087 L26.4782609,14.7826087 L26.4782609,16.3478261 L28.0434783,16.3478261 L28.0434783,14.7826087 Z M15.5217391,11.6521739 L13.9565217,11.6521739 L13.9565217,13.2173913 L15.5217391,13.2173913 L15.5217391,11.6521739 Z M19.0434783,11.6521739 L17.4782609,11.6521739 L17.4782609,13.2173913 L19.0434783,13.2173913 L19.0434783,11.6521739 Z M24.5217391,11.6521739 L22.9565217,11.6521739 L22.9565217,13.2173913 L24.5217391,13.2173913 L24.5217391,11.6521739 Z M28.0434783,11.6521739 L26.4782609,11.6521739 L26.4782609,13.2173913 L28.0434783,13.2173913 L28.0434783,11.6521739 Z M15.5217391,8.52173913 L13.9565217,8.52173913 L13.9565217,10.0869565 L15.5217391,10.0869565 L15.5217391,8.52173913 Z M19.0434783,8.52173913 L17.4782609,8.52173913 L17.4782609,10.0869565 L19.0434783,10.0869565 L19.0434783,8.52173913 Z" id="Combined-Shape" fill="#0A0A0A"></path>
        </g>
    </g>
</svg>