<?xml version="1.0" encoding="UTF-8"?>
<svg width="118px" height="52px" viewBox="0 0 118 52" version="1.1" xmlns="http://www.w3.org/2000/svg" xmlns:xlink="http://www.w3.org/1999/xlink">
    <title>Kampustalo</title>
    <g id="Page-2" stroke="none" stroke-width="1" fill="none" fill-rule="evenodd">
        <g id="Kampustalo" transform="translate(2.000000, 2.000000)">
            <path d="M100.078947,-1.42108547e-14 C107.767332,-8.79453044e-15 114,6.23266756 114,13.9210526 L114,14.0789474 C114,21.7673324 107.767332,28 100.078947,28 L67.082,28 L57.9090648,48.0165858 C57.6789528,48.5186485 57.0854079,48.739108 56.5833453,48.508996 C56.3655138,48.4091565 56.1907746,48.2344173 56.0909352,48.0165858 L46.917,28 L13.9210526,28 C6.23266756,28 -4.3875149e-15,21.7673324 0,14.0789474 L0,13.9210526 C-9.41555617e-16,6.23266756 6.23266756,-1.27985213e-14 13.9210526,-1.42108547e-14 L100.078947,-1.42108547e-14 Z" id="Combined-Shape" stroke="#FFFFFF" stroke-width="2.42105263" fill="#FFE400"></path>
            <path d="M13.77,19 L13.77,14.095 L17.955,19 L20.04,19 L15.375,13.645 L20.04,8.41 L17.97,8.41 L13.77,13.255 L13.77,8.41 L12.06,8.41 L12.06,19 L13.77,19 Z M24.63,19.105 C25.38,19.105 26.02,18.92 26.55,18.55 C27.08,18.18 27.455,17.69 27.675,17.08 L27.675,17.08 L27.675,19 L29.385,19 L29.385,10.735 L27.675,10.735 L27.675,12.655 C27.455,12.045 27.08,11.555 26.55,11.185 C26.02,10.815 25.38,10.63 24.63,10.63 C23.91,10.63 23.2675,10.8 22.7025,11.14 C22.1375,11.48 21.695,11.97 21.375,12.61 C21.055,13.25 20.895,14 20.895,14.86 C20.895,15.73 21.055,16.485 21.375,17.125 C21.695,17.765 22.1375,18.255 22.7025,18.595 C23.2675,18.935 23.91,19.105 24.63,19.105 Z M25.155,17.59 C24.395,17.59 23.7875,17.3475 23.3325,16.8625 C22.8775,16.3775 22.65,15.71 22.65,14.86 C22.65,14.01 22.8775,13.3425 23.3325,12.8575 C23.7875,12.3725 24.395,12.13 25.155,12.13 C25.635,12.13 26.065,12.2425 26.445,12.4675 C26.825,12.6925 27.125,13.0125 27.345,13.4275 C27.565,13.8425 27.675,14.32 27.675,14.86 C27.675,15.41 27.565,15.89 27.345,16.3 C27.125,16.71 26.825,17.0275 26.445,17.2525 C26.065,17.4775 25.635,17.59 25.155,17.59 Z M33.15,10.735 L31.44,10.735 L31.44,19 L33.15,19 L33.15,14.605 C33.15,13.785 33.3475,13.1625 33.7425,12.7375 C34.1375,12.3125 34.67,12.1 35.34,12.1 C35.97,12.1 36.465,12.2975 36.825,12.6925 C37.185,13.0875 37.365,13.645 37.365,14.365 L37.365,14.365 L37.365,19 L39.075,19 L39.075,14.605 C39.075,13.785 39.2725,13.1625 39.6675,12.7375 C40.0625,12.3125 40.595,12.1 41.265,12.1 C41.895,12.1 42.39,12.2975 42.75,12.6925 C43.11,13.0875 43.29,13.645 43.29,14.365 L43.29,14.365 L43.29,19 L45,19 L45,14.185 C45,13.035 44.7075,12.15 44.1225,11.53 C43.5375,10.91 42.755,10.6 41.775,10.6 C41.105,10.6 40.505,10.775 39.975,11.125 C39.445,11.475 39.06,11.96 38.82,12.58 C38.59,11.94 38.2225,11.45 37.7175,11.11 C37.2125,10.77 36.615,10.6 35.925,10.6 C35.265,10.6 34.69,10.76 34.2,11.08 C33.71,11.4 33.36,11.86 33.15,12.46 L33.15,12.459 L33.15,10.735 Z M48.705,22.93 L48.705,17.08 C48.915,17.69 49.285,18.18 49.815,18.55 C50.345,18.92 50.985,19.105 51.735,19.105 C52.455,19.105 53.0975,18.935 53.6625,18.595 C54.2275,18.255 54.67,17.765 54.99,17.125 C55.31,16.485 55.47,15.73 55.47,14.86 C55.47,14 55.31,13.25 54.99,12.61 C54.67,11.97 54.2275,11.48 53.6625,11.14 C53.0975,10.8 52.455,10.63 51.735,10.63 C50.985,10.63 50.345,10.815 49.815,11.185 C49.285,11.555 48.915,12.045 48.705,12.655 L48.705,12.655 L48.705,10.735 L46.995,10.735 L46.995,22.93 L48.705,22.93 Z M51.21,17.59 C50.73,17.59 50.3,17.4775 49.92,17.2525 C49.54,17.0275 49.24,16.71 49.02,16.3 C48.8,15.89 48.69,15.41 48.69,14.86 C48.69,14.32 48.8,13.8425 49.02,13.4275 C49.24,13.0125 49.54,12.6925 49.92,12.4675 C50.3,12.2425 50.73,12.13 51.21,12.13 C51.97,12.13 52.58,12.375 53.04,12.865 C53.5,13.355 53.73,14.02 53.73,14.86 C53.73,15.71 53.5,16.3775 53.04,16.8625 C52.58,17.3475 51.97,17.59 51.21,17.59 Z M60.105,19.12 C60.795,19.12 61.4,18.9525 61.92,18.6175 C62.44,18.2825 62.805,17.81 63.015,17.2 L63.015,17.2 L63.015,19 L64.74,19 L64.74,10.735 L63.015,10.735 L63.015,15.115 C63.015,15.955 62.81,16.595 62.4,17.035 C61.99,17.475 61.445,17.695 60.765,17.695 C60.105,17.695 59.585,17.4925 59.205,17.0875 C58.825,16.6825 58.635,16.105 58.635,15.355 L58.635,15.355 L58.635,10.735 L56.925,10.735 L56.925,15.535 C56.925,16.685 57.215,17.57 57.795,18.19 C58.375,18.81 59.145,19.12 60.105,19.12 Z M70.095,19.105 C70.985,19.105 71.6925,18.89 72.2175,18.46 C72.7425,18.03 73.005,17.47 73.005,16.78 C73.005,16.22 72.8675,15.7775 72.5925,15.4525 C72.3175,15.1275 71.9875,14.89 71.6025,14.74 C71.2175,14.59 70.715,14.445 70.095,14.305 C69.625,14.195 69.2625,14.095 69.0075,14.005 C68.7525,13.915 68.54,13.79 68.37,13.63 C68.2,13.47 68.115,13.26 68.115,13 C68.115,12.65 68.2325,12.3725 68.4675,12.1675 C68.7025,11.9625 69.035,11.86 69.465,11.86 C69.985,11.86 70.4025,11.9975 70.7175,12.2725 C71.0325,12.5475 71.225,12.91 71.295,13.36 L71.295,13.36 L72.915,13.36 C72.785,12.53 72.4275,11.8675 71.8425,11.3725 C71.2575,10.8775 70.48,10.63 69.51,10.63 C68.58,10.63 67.8525,10.8475 67.3275,11.2825 C66.8025,11.7175 66.54,12.285 66.54,12.985 C66.54,13.525 66.6725,13.9525 66.9375,14.2675 C67.2025,14.5825 67.5225,14.81 67.8975,14.95 C68.2725,15.09 68.76,15.23 69.36,15.37 C69.83,15.47 70.2,15.5675 70.47,15.6625 C70.74,15.7575 70.965,15.89 71.145,16.06 C71.325,16.23 71.415,16.46 71.415,16.75 C71.415,17.08 71.2975,17.3525 71.0625,17.5675 C70.8275,17.7825 70.505,17.89 70.095,17.89 C69.525,17.89 69.065,17.75 68.715,17.47 C68.365,17.19 68.165,16.825 68.115,16.375 L68.115,16.375 L66.45,16.375 C66.58,17.235 66.9625,17.905 67.5975,18.385 C68.2325,18.865 69.065,19.105 70.095,19.105 Z M78.87,19 L78.87,17.515 L78.045,17.515 C77.605,17.515 77.2975,17.425 77.1225,17.245 C76.9475,17.065 76.86,16.74 76.86,16.27 L76.86,16.27 L76.86,12.19 L78.855,12.19 L78.855,10.735 L76.86,10.735 L76.86,8.68 L75.135,8.68 L75.135,10.735 L73.95,10.735 L73.95,12.19 L75.135,12.19 L75.135,16.24 C75.135,17.23 75.3625,17.9375 75.8175,18.3625 C76.2725,18.7875 76.94,19 77.82,19 L77.82,19 L78.87,19 Z M83.79,19.105 C84.54,19.105 85.18,18.92 85.71,18.55 C86.24,18.18 86.615,17.69 86.835,17.08 L86.835,17.08 L86.835,19 L88.545,19 L88.545,10.735 L86.835,10.735 L86.835,12.655 C86.615,12.045 86.24,11.555 85.71,11.185 C85.18,10.815 84.54,10.63 83.79,10.63 C83.07,10.63 82.4275,10.8 81.8625,11.14 C81.2975,11.48 80.855,11.97 80.535,12.61 C80.215,13.25 80.055,14 80.055,14.86 C80.055,15.73 80.215,16.485 80.535,17.125 C80.855,17.765 81.2975,18.255 81.8625,18.595 C82.4275,18.935 83.07,19.105 83.79,19.105 Z M84.315,17.59 C83.555,17.59 82.9475,17.3475 82.4925,16.8625 C82.0375,16.3775 81.81,15.71 81.81,14.86 C81.81,14.01 82.0375,13.3425 82.4925,12.8575 C82.9475,12.3725 83.555,12.13 84.315,12.13 C84.795,12.13 85.225,12.2425 85.605,12.4675 C85.985,12.6925 86.285,13.0125 86.505,13.4275 C86.725,13.8425 86.835,14.32 86.835,14.86 C86.835,15.41 86.725,15.89 86.505,16.3 C86.285,16.71 85.985,17.0275 85.605,17.2525 C85.225,17.4775 84.795,17.59 84.315,17.59 Z M92.31,19 L92.31,7.9 L90.6,7.9 L90.6,19 L92.31,19 Z M98.16,19.105 C98.96,19.105 99.68,18.935 100.32,18.595 C100.96,18.255 101.46,17.765 101.82,17.125 C102.18,16.485 102.36,15.73 102.36,14.86 C102.36,14 102.18,13.25 101.82,12.61 C101.46,11.97 100.96,11.48 100.32,11.14 C99.68,10.8 98.96,10.63 98.16,10.63 C97.36,10.63 96.6425,10.8 96.0075,11.14 C95.3725,11.48 94.8725,11.97 94.5075,12.61 C94.1425,13.25 93.96,14 93.96,14.86 C93.96,15.72 94.1425,16.4725 94.5075,17.1175 C94.8725,17.7625 95.3725,18.255 96.0075,18.595 C96.6425,18.935 97.36,19.105 98.16,19.105 Z M98.16,17.605 C97.72,17.605 97.315,17.505 96.945,17.305 C96.575,17.105 96.2775,16.8 96.0525,16.39 C95.8275,15.98 95.715,15.47 95.715,14.86 C95.715,14.26 95.8275,13.7525 96.0525,13.3375 C96.2775,12.9225 96.575,12.615 96.945,12.415 C97.315,12.215 97.72,12.115 98.16,12.115 C98.6,12.115 99.005,12.215 99.375,12.415 C99.745,12.615 100.0425,12.9225 100.2675,13.3375 C100.4925,13.7525 100.605,14.26 100.605,14.86 C100.605,15.47 100.4925,15.98 100.2675,16.39 C100.0425,16.8 99.745,17.105 99.375,17.305 C99.005,17.505 98.6,17.605 98.16,17.605 Z" fill="#0A0A0A" fill-rule="nonzero"></path>
        </g>
    </g>
</svg>