<?xml version="1.0" encoding="UTF-8"?>
<svg width="146px" height="52px" viewBox="0 0 146 52" version="1.1" xmlns="http://www.w3.org/2000/svg" xmlns:xlink="http://www.w3.org/1999/xlink">
    <title>Kampustalo</title>
    <g id="Page-2" stroke="none" stroke-width="1" fill="none" fill-rule="evenodd">
        <g id="Kampustalo" transform="translate(2.000000, 2.000000)">
            <path d="M128.078947,-1.42108547e-14 C135.767332,-1.38468313e-14 142,6.23266756 142,13.9210526 L142,14.0789474 C142,21.7673324 135.767332,28 128.078947,28 L81.082,28 L71.9090648,48.0165858 C71.6789528,48.5186485 71.0854079,48.739108 70.5833453,48.508996 C70.3655138,48.4091565 70.1907746,48.2344173 70.0909352,48.0165858 L60.917,28 L13.9210526,28 C6.23266756,28 4.4942693e-15,21.7673324 0,14.0789474 L0,13.9210526 C-9.41555617e-16,6.23266756 6.23266756,-1.10221645e-14 13.9210526,-1.42108547e-14 L128.078947,-1.42108547e-14 Z" id="Combined-Shape" stroke="#FFFFFF" stroke-width="2.42105263" fill="#FFE400"></path>
            <g id="Group-9" transform="translate(13.000000, 6.000000)">
                <g id="Group-4" fill="#000000">
                    <path d="M0.0451974758,11.8907368 C1.03803958,5.84305263 7.25625011,0.192947368 14.3779343,-6.7314575e-15 C13.1517238,0.112421053 11.9640396,0.523263158 10.9273027,1.17631579 C6.64488169,4.22842105 5.79730274,10.0171579 1.71825011,13.2628421 C1.31751327,13.5821053 0.863723792,13.8382105 0.398565897,14.0592632 C0.0174080022,13.4368421 -0.0653288399,12.5611579 0.0451974758,11.8907368" id="Fill-5"></path>
                    <path d="M3.03070274,15.5661158 C2.33122905,15.5661158 1.68638695,15.3305368 1.17133432,14.9345368 C2.29807116,14.8028526 3.33733432,14.2767474 4.24522905,13.6199053 C8.32428169,10.3739053 9.16965011,4.58232632 13.4527027,1.53053684 C14.7499659,0.713273684 16.2837554,0.274010526 17.8352291,0.326747368 L17.8352291,7.64485263 C17.8352291,11.8435895 14.2658606,15.5661158 10.8878606,15.5661158 L3.03070274,15.5661158 Z" id="Fill-7"></path>
                </g>
                <path d="M26.77,13 L26.77,8.095 L30.955,13 L33.04,13 L28.375,7.645 L33.04,2.41 L30.97,2.41 L26.77,7.255 L26.77,2.41 L25.06,2.41 L25.06,13 L26.77,13 Z M37.63,13.105 C38.38,13.105 39.02,12.92 39.55,12.55 C40.08,12.18 40.455,11.69 40.675,11.08 L40.675,11.08 L40.675,13 L42.385,13 L42.385,4.735 L40.675,4.735 L40.675,6.655 C40.455,6.045 40.08,5.555 39.55,5.185 C39.02,4.815 38.38,4.63 37.63,4.63 C36.91,4.63 36.2675,4.8 35.7025,5.14 C35.1375,5.48 34.695,5.97 34.375,6.61 C34.055,7.25 33.895,8 33.895,8.86 C33.895,9.73 34.055,10.485 34.375,11.125 C34.695,11.765 35.1375,12.255 35.7025,12.595 C36.2675,12.935 36.91,13.105 37.63,13.105 Z M38.155,11.59 C37.395,11.59 36.7875,11.3475 36.3325,10.8625 C35.8775,10.3775 35.65,9.71 35.65,8.86 C35.65,8.01 35.8775,7.3425 36.3325,6.8575 C36.7875,6.3725 37.395,6.13 38.155,6.13 C38.635,6.13 39.065,6.2425 39.445,6.4675 C39.825,6.6925 40.125,7.0125 40.345,7.4275 C40.565,7.8425 40.675,8.32 40.675,8.86 C40.675,9.41 40.565,9.89 40.345,10.3 C40.125,10.71 39.825,11.0275 39.445,11.2525 C39.065,11.4775 38.635,11.59 38.155,11.59 Z M46.15,4.735 L44.44,4.735 L44.44,13 L46.15,13 L46.15,8.605 C46.15,7.785 46.3475,7.1625 46.7425,6.7375 C47.1375,6.3125 47.67,6.1 48.34,6.1 C48.97,6.1 49.465,6.2975 49.825,6.6925 C50.185,7.0875 50.365,7.645 50.365,8.365 L50.365,8.365 L50.365,13 L52.075,13 L52.075,8.605 C52.075,7.785 52.2725,7.1625 52.6675,6.7375 C53.0625,6.3125 53.595,6.1 54.265,6.1 C54.895,6.1 55.39,6.2975 55.75,6.6925 C56.11,7.0875 56.29,7.645 56.29,8.365 L56.29,8.365 L56.29,13 L58,13 L58,8.185 C58,7.035 57.7075,6.15 57.1225,5.53 C56.5375,4.91 55.755,4.6 54.775,4.6 C54.105,4.6 53.505,4.775 52.975,5.125 C52.445,5.475 52.06,5.96 51.82,6.58 C51.59,5.94 51.2225,5.45 50.7175,5.11 C50.2125,4.77 49.615,4.6 48.925,4.6 C48.265,4.6 47.69,4.76 47.2,5.08 C46.71,5.4 46.36,5.86 46.15,6.46 L46.15,6.459 L46.15,4.735 Z M61.705,16.93 L61.705,11.08 C61.915,11.69 62.285,12.18 62.815,12.55 C63.345,12.92 63.985,13.105 64.735,13.105 C65.455,13.105 66.0975,12.935 66.6625,12.595 C67.2275,12.255 67.67,11.765 67.99,11.125 C68.31,10.485 68.47,9.73 68.47,8.86 C68.47,8 68.31,7.25 67.99,6.61 C67.67,5.97 67.2275,5.48 66.6625,5.14 C66.0975,4.8 65.455,4.63 64.735,4.63 C63.985,4.63 63.345,4.815 62.815,5.185 C62.285,5.555 61.915,6.045 61.705,6.655 L61.705,6.655 L61.705,4.735 L59.995,4.735 L59.995,16.93 L61.705,16.93 Z M64.21,11.59 C63.73,11.59 63.3,11.4775 62.92,11.2525 C62.54,11.0275 62.24,10.71 62.02,10.3 C61.8,9.89 61.69,9.41 61.69,8.86 C61.69,8.32 61.8,7.8425 62.02,7.4275 C62.24,7.0125 62.54,6.6925 62.92,6.4675 C63.3,6.2425 63.73,6.13 64.21,6.13 C64.97,6.13 65.58,6.375 66.04,6.865 C66.5,7.355 66.73,8.02 66.73,8.86 C66.73,9.71 66.5,10.3775 66.04,10.8625 C65.58,11.3475 64.97,11.59 64.21,11.59 Z M73.105,13.12 C73.795,13.12 74.4,12.9525 74.92,12.6175 C75.44,12.2825 75.805,11.81 76.015,11.2 L76.015,11.2 L76.015,13 L77.74,13 L77.74,4.735 L76.015,4.735 L76.015,9.115 C76.015,9.955 75.81,10.595 75.4,11.035 C74.99,11.475 74.445,11.695 73.765,11.695 C73.105,11.695 72.585,11.4925 72.205,11.0875 C71.825,10.6825 71.635,10.105 71.635,9.355 L71.635,9.355 L71.635,4.735 L69.925,4.735 L69.925,9.535 C69.925,10.685 70.215,11.57 70.795,12.19 C71.375,12.81 72.145,13.12 73.105,13.12 Z M83.095,13.105 C83.985,13.105 84.6925,12.89 85.2175,12.46 C85.7425,12.03 86.005,11.47 86.005,10.78 C86.005,10.22 85.8675,9.7775 85.5925,9.4525 C85.3175,9.1275 84.9875,8.89 84.6025,8.74 C84.2175,8.59 83.715,8.445 83.095,8.305 C82.625,8.195 82.2625,8.095 82.0075,8.005 C81.7525,7.915 81.54,7.79 81.37,7.63 C81.2,7.47 81.115,7.26 81.115,7 C81.115,6.65 81.2325,6.3725 81.4675,6.1675 C81.7025,5.9625 82.035,5.86 82.465,5.86 C82.985,5.86 83.4025,5.9975 83.7175,6.2725 C84.0325,6.5475 84.225,6.91 84.295,7.36 L84.295,7.36 L85.915,7.36 C85.785,6.53 85.4275,5.8675 84.8425,5.3725 C84.2575,4.8775 83.48,4.63 82.51,4.63 C81.58,4.63 80.8525,4.8475 80.3275,5.2825 C79.8025,5.7175 79.54,6.285 79.54,6.985 C79.54,7.525 79.6725,7.9525 79.9375,8.2675 C80.2025,8.5825 80.5225,8.81 80.8975,8.95 C81.2725,9.09 81.76,9.23 82.36,9.37 C82.83,9.47 83.2,9.5675 83.47,9.6625 C83.74,9.7575 83.965,9.89 84.145,10.06 C84.325,10.23 84.415,10.46 84.415,10.75 C84.415,11.08 84.2975,11.3525 84.0625,11.5675 C83.8275,11.7825 83.505,11.89 83.095,11.89 C82.525,11.89 82.065,11.75 81.715,11.47 C81.365,11.19 81.165,10.825 81.115,10.375 L81.115,10.375 L79.45,10.375 C79.58,11.235 79.9625,11.905 80.5975,12.385 C81.2325,12.865 82.065,13.105 83.095,13.105 Z M91.87,13 L91.87,11.515 L91.045,11.515 C90.605,11.515 90.2975,11.425 90.1225,11.245 C89.9475,11.065 89.86,10.74 89.86,10.27 L89.86,10.27 L89.86,6.19 L91.855,6.19 L91.855,4.735 L89.86,4.735 L89.86,2.68 L88.135,2.68 L88.135,4.735 L86.95,4.735 L86.95,6.19 L88.135,6.19 L88.135,10.24 C88.135,11.23 88.3625,11.9375 88.8175,12.3625 C89.2725,12.7875 89.94,13 90.82,13 L90.82,13 L91.87,13 Z M96.79,13.105 C97.54,13.105 98.18,12.92 98.71,12.55 C99.24,12.18 99.615,11.69 99.835,11.08 L99.835,11.08 L99.835,13 L101.545,13 L101.545,4.735 L99.835,4.735 L99.835,6.655 C99.615,6.045 99.24,5.555 98.71,5.185 C98.18,4.815 97.54,4.63 96.79,4.63 C96.07,4.63 95.4275,4.8 94.8625,5.14 C94.2975,5.48 93.855,5.97 93.535,6.61 C93.215,7.25 93.055,8 93.055,8.86 C93.055,9.73 93.215,10.485 93.535,11.125 C93.855,11.765 94.2975,12.255 94.8625,12.595 C95.4275,12.935 96.07,13.105 96.79,13.105 Z M97.315,11.59 C96.555,11.59 95.9475,11.3475 95.4925,10.8625 C95.0375,10.3775 94.81,9.71 94.81,8.86 C94.81,8.01 95.0375,7.3425 95.4925,6.8575 C95.9475,6.3725 96.555,6.13 97.315,6.13 C97.795,6.13 98.225,6.2425 98.605,6.4675 C98.985,6.6925 99.285,7.0125 99.505,7.4275 C99.725,7.8425 99.835,8.32 99.835,8.86 C99.835,9.41 99.725,9.89 99.505,10.3 C99.285,10.71 98.985,11.0275 98.605,11.2525 C98.225,11.4775 97.795,11.59 97.315,11.59 Z M105.31,13 L105.31,1.9 L103.6,1.9 L103.6,13 L105.31,13 Z M111.16,13.105 C111.96,13.105 112.68,12.935 113.32,12.595 C113.96,12.255 114.46,11.765 114.82,11.125 C115.18,10.485 115.36,9.73 115.36,8.86 C115.36,8 115.18,7.25 114.82,6.61 C114.46,5.97 113.96,5.48 113.32,5.14 C112.68,4.8 111.96,4.63 111.16,4.63 C110.36,4.63 109.6425,4.8 109.0075,5.14 C108.3725,5.48 107.8725,5.97 107.5075,6.61 C107.1425,7.25 106.96,8 106.96,8.86 C106.96,9.72 107.1425,10.4725 107.5075,11.1175 C107.8725,11.7625 108.3725,12.255 109.0075,12.595 C109.6425,12.935 110.36,13.105 111.16,13.105 Z M111.16,11.605 C110.72,11.605 110.315,11.505 109.945,11.305 C109.575,11.105 109.2775,10.8 109.0525,10.39 C108.8275,9.98 108.715,9.47 108.715,8.86 C108.715,8.26 108.8275,7.7525 109.0525,7.3375 C109.2775,6.9225 109.575,6.615 109.945,6.415 C110.315,6.215 110.72,6.115 111.16,6.115 C111.6,6.115 112.005,6.215 112.375,6.415 C112.745,6.615 113.0425,6.9225 113.2675,7.3375 C113.4925,7.7525 113.605,8.26 113.605,8.86 C113.605,9.47 113.4925,9.98 113.2675,10.39 C113.0425,10.8 112.745,11.105 112.375,11.305 C112.005,11.505 111.6,11.605 111.16,11.605 Z" id="Kampustalo" fill="#0A0A0A" fill-rule="nonzero"></path>
            </g>
        </g>
    </g>
</svg>