<?xml version="1.0" encoding="UTF-8"?>
<svg width="157px" height="28px" viewBox="0 0 157 28" version="1.1" xmlns="http://www.w3.org/2000/svg" xmlns:xlink="http://www.w3.org/1999/xlink">
    <title>link-btn</title>
    <g id="Page-2" stroke="none" stroke-width="1" fill="none" fill-rule="evenodd">
        <g id="modal-mallit" transform="translate(-122.000000, -607.000000)">
            <g id="link-btn" transform="translate(122.000000, 607.000000)">
                <rect id="Rectangle" fill="#FFE400" x="0" y="0" width="157" height="28" rx="14"></rect>
                <path d="M55.115,20 L55.115,10.79 L58.07,10.79 L58.07,9.41 L50.45,9.41 L50.45,10.79 L53.39,10.79 L53.39,20 L55.115,20 Z M62.33,20.12 C63.02,20.12 63.625,19.9525 64.145,19.6175 C64.665,19.2825 65.03,18.81 65.24,18.2 L65.24,18.2 L65.24,20 L66.965,20 L66.965,11.735 L65.24,11.735 L65.24,16.115 C65.24,16.955 65.035,17.595 64.625,18.035 C64.215,18.475 63.67,18.695 62.99,18.695 C62.33,18.695 61.81,18.4925 61.43,18.0875 C61.05,17.6825 60.86,17.105 60.86,16.355 L60.86,16.355 L60.86,11.735 L59.15,11.735 L59.15,16.535 C59.15,17.685 59.44,18.57 60.02,19.19 C60.6,19.81 61.37,20.12 62.33,20.12 Z M73.175,20 L73.175,18.515 L72.35,18.515 C71.91,18.515 71.6025,18.425 71.4275,18.245 C71.2525,18.065 71.165,17.74 71.165,17.27 L71.165,17.27 L71.165,13.19 L73.16,13.19 L73.16,11.735 L71.165,11.735 L71.165,9.68 L69.44,9.68 L69.44,11.735 L68.255,11.735 L68.255,13.19 L69.44,13.19 L69.44,17.24 C69.44,18.23 69.6675,18.9375 70.1225,19.3625 C70.5775,19.7875 71.245,20 72.125,20 L72.125,20 L73.175,20 Z M77.765,20.12 C78.455,20.12 79.06,19.9525 79.58,19.6175 C80.1,19.2825 80.465,18.81 80.675,18.2 L80.675,18.2 L80.675,20 L82.4,20 L82.4,11.735 L80.675,11.735 L80.675,16.115 C80.675,16.955 80.47,17.595 80.06,18.035 C79.65,18.475 79.105,18.695 78.425,18.695 C77.765,18.695 77.245,18.4925 76.865,18.0875 C76.485,17.6825 76.295,17.105 76.295,16.355 L76.295,16.355 L76.295,11.735 L74.585,11.735 L74.585,16.535 C74.585,17.685 74.875,18.57 75.455,19.19 C76.035,19.81 76.805,20.12 77.765,20.12 Z M87.755,20.105 C88.645,20.105 89.3525,19.89 89.8775,19.46 C90.4025,19.03 90.665,18.47 90.665,17.78 C90.665,17.22 90.5275,16.7775 90.2525,16.4525 C89.9775,16.1275 89.6475,15.89 89.2625,15.74 C88.8775,15.59 88.375,15.445 87.755,15.305 C87.285,15.195 86.9225,15.095 86.6675,15.005 C86.4125,14.915 86.2,14.79 86.03,14.63 C85.86,14.47 85.775,14.26 85.775,14 C85.775,13.65 85.8925,13.3725 86.1275,13.1675 C86.3625,12.9625 86.695,12.86 87.125,12.86 C87.645,12.86 88.0625,12.9975 88.3775,13.2725 C88.6925,13.5475 88.885,13.91 88.955,14.36 L88.955,14.36 L90.575,14.36 C90.445,13.53 90.0875,12.8675 89.5025,12.3725 C88.9175,11.8775 88.14,11.63 87.17,11.63 C86.24,11.63 85.5125,11.8475 84.9875,12.2825 C84.4625,12.7175 84.2,13.285 84.2,13.985 C84.2,14.525 84.3325,14.9525 84.5975,15.2675 C84.8625,15.5825 85.1825,15.81 85.5575,15.95 C85.9325,16.09 86.42,16.23 87.02,16.37 C87.49,16.47 87.86,16.5675 88.13,16.6625 C88.4,16.7575 88.625,16.89 88.805,17.06 C88.985,17.23 89.075,17.46 89.075,17.75 C89.075,18.08 88.9575,18.3525 88.7225,18.5675 C88.4875,18.7825 88.165,18.89 87.755,18.89 C87.185,18.89 86.725,18.75 86.375,18.47 C86.025,18.19 85.825,17.825 85.775,17.375 L85.775,17.375 L84.11,17.375 C84.24,18.235 84.6225,18.905 85.2575,19.385 C85.8925,19.865 86.725,20.105 87.755,20.105 Z M96.53,20 L96.53,18.515 L95.705,18.515 C95.265,18.515 94.9575,18.425 94.7825,18.245 C94.6075,18.065 94.52,17.74 94.52,17.27 L94.52,17.27 L94.52,13.19 L96.515,13.19 L96.515,11.735 L94.52,11.735 L94.52,9.68 L92.795,9.68 L92.795,11.735 L91.61,11.735 L91.61,13.19 L92.795,13.19 L92.795,17.24 C92.795,18.23 93.0225,18.9375 93.4775,19.3625 C93.9325,19.7875 94.6,20 95.48,20 L95.48,20 L96.53,20 Z M101.12,20.12 C101.81,20.12 102.415,19.9525 102.935,19.6175 C103.455,19.2825 103.82,18.81 104.03,18.2 L104.03,18.2 L104.03,20 L105.755,20 L105.755,11.735 L104.03,11.735 L104.03,16.115 C104.03,16.955 103.825,17.595 103.415,18.035 C103.005,18.475 102.46,18.695 101.78,18.695 C101.12,18.695 100.6,18.4925 100.22,18.0875 C99.84,17.6825 99.65,17.105 99.65,16.355 L99.65,16.355 L99.65,11.735 L97.94,11.735 L97.94,16.535 C97.94,17.685 98.23,18.57 98.81,19.19 C99.39,19.81 100.16,20.12 101.12,20.12 Z" id="Tutustu" fill="#0A0A0A" fill-rule="nonzero"></path>
            </g>
        </g>
    </g>
</svg>