<?xml version="1.0" encoding="UTF-8"?>
<svg width="189px" height="52px" viewBox="0 0 189 52" version="1.1" xmlns="http://www.w3.org/2000/svg" xmlns:xlink="http://www.w3.org/1999/xlink">
    <title>Marttilan kortteeri</title>
    <g id="Page-2" stroke="none" stroke-width="1" fill="none" fill-rule="evenodd">
        <g id="Marttilan-kortteeri" transform="translate(2.000000, 2.000000)">
            <path d="M171.078947,0 C178.767332,-1.41233342e-15 185,6.23266756 185,13.9210526 L185,14.0789474 C185,21.7673324 178.767332,28 171.078947,28 L103.082,28 L93.9090648,48.0165858 C93.6789528,48.5186485 93.0854079,48.739108 92.5833453,48.508996 C92.3655138,48.4091565 92.1907746,48.2344173 92.0909352,48.0165858 L82.917,28 L13.9210526,28 C6.23266756,28 -4.3875149e-15,21.7673324 0,14.0789474 L0,13.9210526 C-4.4942693e-15,6.23266756 6.23266756,1.41233342e-15 13.9210526,0 L171.078947,0 Z" id="Combined-Shape" stroke="#FFFFFF" stroke-width="2.42105263" fill="#FFE400"></path>
            <g id="Group-3" transform="translate(13.000000, 5.000000)" fill="#0A0A0A">
                <path d="M4.5,0 L9,2.34782609 L9,5.07539146 L13.5,2.73913043 L18,5.07539146 L18,18 L0,18 L0,2.34782609 L4.5,0 Z M3.52173913,12.9130435 L1.95652174,12.9130435 L1.95652174,14.4782609 L3.52173913,14.4782609 L3.52173913,12.9130435 Z M7.04347826,12.9130435 L5.47826087,12.9130435 L5.47826087,14.4782609 L7.04347826,14.4782609 L7.04347826,12.9130435 Z M12.5217391,12.9130435 L10.9565217,12.9130435 L10.9565217,14.4782609 L12.5217391,14.4782609 L12.5217391,12.9130435 Z M16.0434783,12.9130435 L14.4782609,12.9130435 L14.4782609,14.4782609 L16.0434783,14.4782609 L16.0434783,12.9130435 Z M3.52173913,9.7826087 L1.95652174,9.7826087 L1.95652174,11.3478261 L3.52173913,11.3478261 L3.52173913,9.7826087 Z M7.04347826,9.7826087 L5.47826087,9.7826087 L5.47826087,11.3478261 L7.04347826,11.3478261 L7.04347826,9.7826087 Z M12.5217391,9.7826087 L10.9565217,9.7826087 L10.9565217,11.3478261 L12.5217391,11.3478261 L12.5217391,9.7826087 Z M16.0434783,9.7826087 L14.4782609,9.7826087 L14.4782609,11.3478261 L16.0434783,11.3478261 L16.0434783,9.7826087 Z M3.52173913,6.65217391 L1.95652174,6.65217391 L1.95652174,8.2173913 L3.52173913,8.2173913 L3.52173913,6.65217391 Z M7.04347826,6.65217391 L5.47826087,6.65217391 L5.47826087,8.2173913 L7.04347826,8.2173913 L7.04347826,6.65217391 Z M12.5217391,6.65217391 L10.9565217,6.65217391 L10.9565217,8.2173913 L12.5217391,8.2173913 L12.5217391,6.65217391 Z M16.0434783,6.65217391 L14.4782609,6.65217391 L14.4782609,8.2173913 L16.0434783,8.2173913 L16.0434783,6.65217391 Z M3.52173913,3.52173913 L1.95652174,3.52173913 L1.95652174,5.08695652 L3.52173913,5.08695652 L3.52173913,3.52173913 Z M7.04347826,3.52173913 L5.47826087,3.52173913 L5.47826087,5.08695652 L7.04347826,5.08695652 L7.04347826,3.52173913 Z" id="Combined-Shape"></path>
                <path d="M27.185,14 L27.185,6.185 L30.215,14 L31.715,14 L34.73,6.185 L34.73,14 L36.455,14 L36.455,3.575 L34.385,3.575 L30.995,11.9 L27.545,3.575 L25.475,3.575 L25.475,14 L27.185,14 Z M41.825,14.105 C42.575,14.105 43.215,13.92 43.745,13.55 C44.275,13.18 44.65,12.69 44.87,12.08 L44.87,12.08 L44.87,14 L46.58,14 L46.58,5.735 L44.87,5.735 L44.87,7.655 C44.65,7.045 44.275,6.555 43.745,6.185 C43.215,5.815 42.575,5.63 41.825,5.63 C41.105,5.63 40.4625,5.8 39.8975,6.14 C39.3325,6.48 38.89,6.97 38.57,7.61 C38.25,8.25 38.09,9 38.09,9.86 C38.09,10.73 38.25,11.485 38.57,12.125 C38.89,12.765 39.3325,13.255 39.8975,13.595 C40.4625,13.935 41.105,14.105 41.825,14.105 Z M42.35,12.59 C41.59,12.59 40.9825,12.3475 40.5275,11.8625 C40.0725,11.3775 39.845,10.71 39.845,9.86 C39.845,9.01 40.0725,8.3425 40.5275,7.8575 C40.9825,7.3725 41.59,7.13 42.35,7.13 C42.83,7.13 43.26,7.2425 43.64,7.4675 C44.02,7.6925 44.32,8.0125 44.54,8.4275 C44.76,8.8425 44.87,9.32 44.87,9.86 C44.87,10.41 44.76,10.89 44.54,11.3 C44.32,11.71 44.02,12.0275 43.64,12.2525 C43.26,12.4775 42.83,12.59 42.35,12.59 Z M50.345,14 L50.345,9.815 C50.345,8.975 50.5725,8.3725 51.0275,8.0075 C51.4825,7.6425 52.085,7.46 52.835,7.46 L52.835,7.46 L53.345,7.46 L53.345,5.6 C52.665,5.6 52.065,5.7575 51.545,6.0725 C51.025,6.3875 50.625,6.815 50.345,7.355 L50.345,7.355 L50.345,5.735 L48.635,5.735 L48.635,14 L50.345,14 Z M58.775,14 L58.775,12.515 L57.95,12.515 C57.51,12.515 57.2025,12.425 57.0275,12.245 C56.8525,12.065 56.765,11.74 56.765,11.27 L56.765,11.27 L56.765,7.19 L58.76,7.19 L58.76,5.735 L56.765,5.735 L56.765,3.68 L55.04,3.68 L55.04,5.735 L53.855,5.735 L53.855,7.19 L55.04,7.19 L55.04,11.24 C55.04,12.23 55.2675,12.9375 55.7225,13.3625 C56.1775,13.7875 56.845,14 57.725,14 L57.725,14 L58.775,14 Z M64.535,14 L64.535,12.515 L63.71,12.515 C63.27,12.515 62.9625,12.425 62.7875,12.245 C62.6125,12.065 62.525,11.74 62.525,11.27 L62.525,11.27 L62.525,7.19 L64.52,7.19 L64.52,5.735 L62.525,5.735 L62.525,3.68 L60.8,3.68 L60.8,5.735 L59.615,5.735 L59.615,7.19 L60.8,7.19 L60.8,11.24 C60.8,12.23 61.0275,12.9375 61.4825,13.3625 C61.9375,13.7875 62.605,14 63.485,14 L63.485,14 L64.535,14 Z M66.995,4.31 C67.325,4.31 67.5925,4.22 67.7975,4.04 C68.0025,3.86 68.105,3.625 68.105,3.335 C68.105,3.045 68.0025,2.805 67.7975,2.615 C67.5925,2.425 67.325,2.33 66.995,2.33 C66.665,2.33 66.4,2.425 66.2,2.615 C66,2.805 65.9,3.045 65.9,3.335 C65.9,3.625 66,3.86 66.2,4.04 C66.4,4.22 66.665,4.31 66.995,4.31 Z M67.85,14 L67.85,5.735 L66.14,5.735 L66.14,14 L67.85,14 Z M71.63,14 L71.63,2.9 L69.92,2.9 L69.92,14 L71.63,14 Z M77.015,14.105 C77.765,14.105 78.405,13.92 78.935,13.55 C79.465,13.18 79.84,12.69 80.06,12.08 L80.06,12.08 L80.06,14 L81.77,14 L81.77,5.735 L80.06,5.735 L80.06,7.655 C79.84,7.045 79.465,6.555 78.935,6.185 C78.405,5.815 77.765,5.63 77.015,5.63 C76.295,5.63 75.6525,5.8 75.0875,6.14 C74.5225,6.48 74.08,6.97 73.76,7.61 C73.44,8.25 73.28,9 73.28,9.86 C73.28,10.73 73.44,11.485 73.76,12.125 C74.08,12.765 74.5225,13.255 75.0875,13.595 C75.6525,13.935 76.295,14.105 77.015,14.105 Z M77.54,12.59 C76.78,12.59 76.1725,12.3475 75.7175,11.8625 C75.2625,11.3775 75.035,10.71 75.035,9.86 C75.035,9.01 75.2625,8.3425 75.7175,7.8575 C76.1725,7.3725 76.78,7.13 77.54,7.13 C78.02,7.13 78.45,7.2425 78.83,7.4675 C79.21,7.6925 79.51,8.0125 79.73,8.4275 C79.95,8.8425 80.06,9.32 80.06,9.86 C80.06,10.41 79.95,10.89 79.73,11.3 C79.51,11.71 79.21,12.0275 78.83,12.2525 C78.45,12.4775 78.02,12.59 77.54,12.59 Z M85.535,14 L85.535,9.605 C85.535,8.765 85.74,8.1275 86.15,7.6925 C86.56,7.2575 87.105,7.04 87.785,7.04 C88.445,7.04 88.965,7.2425 89.345,7.6475 C89.725,8.0525 89.915,8.625 89.915,9.365 L89.915,9.365 L89.915,14 L91.625,14 L91.625,9.185 C91.625,8.035 91.335,7.15 90.755,6.53 C90.175,5.91 89.405,5.6 88.445,5.6 C87.765,5.6 87.165,5.77 86.645,6.11 C86.125,6.45 85.755,6.93 85.535,7.55 L85.535,7.55 L85.535,5.735 L83.825,5.735 L83.825,14 L85.535,14 Z M98.84,14 L98.84,10.325 L101.81,14 L103.925,14 L100.235,9.845 L103.835,5.735 L101.78,5.735 L98.84,9.26 L98.84,2.9 L97.13,2.9 L97.13,14 L98.84,14 Z M108.815,14.105 C109.615,14.105 110.335,13.935 110.975,13.595 C111.615,13.255 112.115,12.765 112.475,12.125 C112.835,11.485 113.015,10.73 113.015,9.86 C113.015,9 112.835,8.25 112.475,7.61 C112.115,6.97 111.615,6.48 110.975,6.14 C110.335,5.8 109.615,5.63 108.815,5.63 C108.015,5.63 107.2975,5.8 106.6625,6.14 C106.0275,6.48 105.5275,6.97 105.1625,7.61 C104.7975,8.25 104.615,9 104.615,9.86 C104.615,10.72 104.7975,11.4725 105.1625,12.1175 C105.5275,12.7625 106.0275,13.255 106.6625,13.595 C107.2975,13.935 108.015,14.105 108.815,14.105 Z M108.815,12.605 C108.375,12.605 107.97,12.505 107.6,12.305 C107.23,12.105 106.9325,11.8 106.7075,11.39 C106.4825,10.98 106.37,10.47 106.37,9.86 C106.37,9.26 106.4825,8.7525 106.7075,8.3375 C106.9325,7.9225 107.23,7.615 107.6,7.415 C107.97,7.215 108.375,7.115 108.815,7.115 C109.255,7.115 109.66,7.215 110.03,7.415 C110.4,7.615 110.6975,7.9225 110.9225,8.3375 C111.1475,8.7525 111.26,9.26 111.26,9.86 C111.26,10.47 111.1475,10.98 110.9225,11.39 C110.6975,11.8 110.4,12.105 110.03,12.305 C109.66,12.505 109.255,12.605 108.815,12.605 Z M116.375,14 L116.375,9.815 C116.375,8.975 116.6025,8.3725 117.0575,8.0075 C117.5125,7.6425 118.115,7.46 118.865,7.46 L118.865,7.46 L119.375,7.46 L119.375,5.6 C118.695,5.6 118.095,5.7575 117.575,6.0725 C117.055,6.3875 116.655,6.815 116.375,7.355 L116.375,7.355 L116.375,5.735 L114.665,5.735 L114.665,14 L116.375,14 Z M124.805,14 L124.805,12.515 L123.98,12.515 C123.54,12.515 123.2325,12.425 123.0575,12.245 C122.8825,12.065 122.795,11.74 122.795,11.27 L122.795,11.27 L122.795,7.19 L124.79,7.19 L124.79,5.735 L122.795,5.735 L122.795,3.68 L121.07,3.68 L121.07,5.735 L119.885,5.735 L119.885,7.19 L121.07,7.19 L121.07,11.24 C121.07,12.23 121.2975,12.9375 121.7525,13.3625 C122.2075,13.7875 122.875,14 123.755,14 L123.755,14 L124.805,14 Z M130.565,14 L130.565,12.515 L129.74,12.515 C129.3,12.515 128.9925,12.425 128.8175,12.245 C128.6425,12.065 128.555,11.74 128.555,11.27 L128.555,11.27 L128.555,7.19 L130.55,7.19 L130.55,5.735 L128.555,5.735 L128.555,3.68 L126.83,3.68 L126.83,5.735 L125.645,5.735 L125.645,7.19 L126.83,7.19 L126.83,11.24 C126.83,12.23 127.0575,12.9375 127.5125,13.3625 C127.9675,13.7875 128.635,14 129.515,14 L129.515,14 L130.565,14 Z M135.845,14.105 C136.535,14.105 137.16,13.9775 137.72,13.7225 C138.28,13.4675 138.735,13.115 139.085,12.665 C139.435,12.215 139.665,11.7 139.775,11.12 L139.775,11.12 L137.945,11.12 C137.855,11.6 137.6125,11.985 137.2175,12.275 C136.8225,12.565 136.34,12.71 135.77,12.71 C135.12,12.71 134.575,12.505 134.135,12.095 C133.695,11.685 133.46,11.055 133.43,10.205 L133.43,10.205 L139.79,10.205 C139.83,9.995 139.85,9.75 139.85,9.47 C139.85,8.75 139.6875,8.0975 139.3625,7.5125 C139.0375,6.9275 138.5725,6.4675 137.9675,6.1325 C137.3625,5.7975 136.655,5.63 135.845,5.63 C135.045,5.63 134.3375,5.8 133.7225,6.14 C133.1075,6.48 132.625,6.97 132.275,7.61 C131.925,8.25 131.75,9 131.75,9.86 C131.75,10.73 131.925,11.485 132.275,12.125 C132.625,12.765 133.1075,13.255 133.7225,13.595 C134.3375,13.935 135.045,14.105 135.845,14.105 Z M138.125,9.425 L133.43,9.425 C133.47,8.625 133.715,8.02 134.165,7.61 C134.615,7.2 135.175,6.995 135.845,6.995 C136.265,6.995 136.6525,7.0825 137.0075,7.2575 C137.3625,7.4325 137.6425,7.7025 137.8475,8.0675 C138.0525,8.4325 138.145,8.885 138.125,9.425 L138.125,9.425 Z M145.175,14.105 C145.865,14.105 146.49,13.9775 147.05,13.7225 C147.61,13.4675 148.065,13.115 148.415,12.665 C148.765,12.215 148.995,11.7 149.105,11.12 L149.105,11.12 L147.275,11.12 C147.185,11.6 146.9425,11.985 146.5475,12.275 C146.1525,12.565 145.67,12.71 145.1,12.71 C144.45,12.71 143.905,12.505 143.465,12.095 C143.025,11.685 142.79,11.055 142.76,10.205 L142.76,10.205 L149.12,10.205 C149.16,9.995 149.18,9.75 149.18,9.47 C149.18,8.75 149.0175,8.0975 148.6925,7.5125 C148.3675,6.9275 147.9025,6.4675 147.2975,6.1325 C146.6925,5.7975 145.985,5.63 145.175,5.63 C144.375,5.63 143.6675,5.8 143.0525,6.14 C142.4375,6.48 141.955,6.97 141.605,7.61 C141.255,8.25 141.08,9 141.08,9.86 C141.08,10.73 141.255,11.485 141.605,12.125 C141.955,12.765 142.4375,13.255 143.0525,13.595 C143.6675,13.935 144.375,14.105 145.175,14.105 Z M147.455,9.425 L142.76,9.425 C142.8,8.625 143.045,8.02 143.495,7.61 C143.945,7.2 144.505,6.995 145.175,6.995 C145.595,6.995 145.9825,7.0825 146.3375,7.2575 C146.6925,7.4325 146.9725,7.7025 147.1775,8.0675 C147.3825,8.4325 147.475,8.885 147.455,9.425 L147.455,9.425 Z M152.54,14 L152.54,9.815 C152.54,8.975 152.7675,8.3725 153.2225,8.0075 C153.6775,7.6425 154.28,7.46 155.03,7.46 L155.03,7.46 L155.54,7.46 L155.54,5.6 C154.86,5.6 154.26,5.7575 153.74,6.0725 C153.22,6.3875 152.82,6.815 152.54,7.355 L152.54,7.355 L152.54,5.735 L150.83,5.735 L150.83,14 L152.54,14 Z M157.67,4.31 C158,4.31 158.2675,4.22 158.4725,4.04 C158.6775,3.86 158.78,3.625 158.78,3.335 C158.78,3.045 158.6775,2.805 158.4725,2.615 C158.2675,2.425 158,2.33 157.67,2.33 C157.34,2.33 157.075,2.425 156.875,2.615 C156.675,2.805 156.575,3.045 156.575,3.335 C156.575,3.625 156.675,3.86 156.875,4.04 C157.075,4.22 157.34,4.31 157.67,4.31 Z M158.525,14 L158.525,5.735 L156.815,5.735 L156.815,14 L158.525,14 Z" id="Marttilankortteeri" fill-rule="nonzero"></path>
            </g>
        </g>
    </g>
</svg>