<?xml version="1.0" encoding="UTF-8"?>
<svg width="161px" height="52px" viewBox="0 0 161 52" version="1.1" xmlns="http://www.w3.org/2000/svg" xmlns:xlink="http://www.w3.org/1999/xlink">
    <title>Marttilan kortteeri</title>
    <g id="Page-2" stroke="none" stroke-width="1" fill="none" fill-rule="evenodd">
        <g id="Marttilan-kortteeri" transform="translate(2.000000, 2.000000)">
            <path d="M143.078947,0 C150.767332,-1.41233342e-15 157,6.23266756 157,13.9210526 L157,14.0789474 C157,21.7673324 150.767332,28 143.078947,28 L89.082,28 L79.9090648,48.0165858 C79.6789528,48.5186485 79.0854079,48.739108 78.5833453,48.508996 C78.3655138,48.4091565 78.1907746,48.2344173 78.0909352,48.0165858 L68.917,28 L13.9210526,28 C6.23266756,28 1.15996967e-14,21.7673324 0,14.0789474 L0,13.9210526 C-9.41555617e-16,6.23266756 6.23266756,1.41233342e-15 13.9210526,0 L143.078947,0 Z" id="Combined-Shape" stroke="#FFFFFF" stroke-width="2.42105263" fill="#FFE400"></path>
            <path d="M14.185,19 L14.185,11.185 L17.215,19 L18.715,19 L21.73,11.185 L21.73,19 L23.455,19 L23.455,8.575 L21.385,8.575 L17.995,16.9 L14.545,8.575 L12.475,8.575 L12.475,19 L14.185,19 Z M28.825,19.105 C29.575,19.105 30.215,18.92 30.745,18.55 C31.275,18.18 31.65,17.69 31.87,17.08 L31.87,17.08 L31.87,19 L33.58,19 L33.58,10.735 L31.87,10.735 L31.87,12.655 C31.65,12.045 31.275,11.555 30.745,11.185 C30.215,10.815 29.575,10.63 28.825,10.63 C28.105,10.63 27.4625,10.8 26.8975,11.14 C26.3325,11.48 25.89,11.97 25.57,12.61 C25.25,13.25 25.09,14 25.09,14.86 C25.09,15.73 25.25,16.485 25.57,17.125 C25.89,17.765 26.3325,18.255 26.8975,18.595 C27.4625,18.935 28.105,19.105 28.825,19.105 Z M29.35,17.59 C28.59,17.59 27.9825,17.3475 27.5275,16.8625 C27.0725,16.3775 26.845,15.71 26.845,14.86 C26.845,14.01 27.0725,13.3425 27.5275,12.8575 C27.9825,12.3725 28.59,12.13 29.35,12.13 C29.83,12.13 30.26,12.2425 30.64,12.4675 C31.02,12.6925 31.32,13.0125 31.54,13.4275 C31.76,13.8425 31.87,14.32 31.87,14.86 C31.87,15.41 31.76,15.89 31.54,16.3 C31.32,16.71 31.02,17.0275 30.64,17.2525 C30.26,17.4775 29.83,17.59 29.35,17.59 Z M37.345,19 L37.345,14.815 C37.345,13.975 37.5725,13.3725 38.0275,13.0075 C38.4825,12.6425 39.085,12.46 39.835,12.46 L39.835,12.46 L40.345,12.46 L40.345,10.6 C39.665,10.6 39.065,10.7575 38.545,11.0725 C38.025,11.3875 37.625,11.815 37.345,12.355 L37.345,12.355 L37.345,10.735 L35.635,10.735 L35.635,19 L37.345,19 Z M45.775,19 L45.775,17.515 L44.95,17.515 C44.51,17.515 44.2025,17.425 44.0275,17.245 C43.8525,17.065 43.765,16.74 43.765,16.27 L43.765,16.27 L43.765,12.19 L45.76,12.19 L45.76,10.735 L43.765,10.735 L43.765,8.68 L42.04,8.68 L42.04,10.735 L40.855,10.735 L40.855,12.19 L42.04,12.19 L42.04,16.24 C42.04,17.23 42.2675,17.9375 42.7225,18.3625 C43.1775,18.7875 43.845,19 44.725,19 L44.725,19 L45.775,19 Z M51.535,19 L51.535,17.515 L50.71,17.515 C50.27,17.515 49.9625,17.425 49.7875,17.245 C49.6125,17.065 49.525,16.74 49.525,16.27 L49.525,16.27 L49.525,12.19 L51.52,12.19 L51.52,10.735 L49.525,10.735 L49.525,8.68 L47.8,8.68 L47.8,10.735 L46.615,10.735 L46.615,12.19 L47.8,12.19 L47.8,16.24 C47.8,17.23 48.0275,17.9375 48.4825,18.3625 C48.9375,18.7875 49.605,19 50.485,19 L50.485,19 L51.535,19 Z M53.995,9.31 C54.325,9.31 54.5925,9.22 54.7975,9.04 C55.0025,8.86 55.105,8.625 55.105,8.335 C55.105,8.045 55.0025,7.805 54.7975,7.615 C54.5925,7.425 54.325,7.33 53.995,7.33 C53.665,7.33 53.4,7.425 53.2,7.615 C53,7.805 52.9,8.045 52.9,8.335 C52.9,8.625 53,8.86 53.2,9.04 C53.4,9.22 53.665,9.31 53.995,9.31 Z M54.85,19 L54.85,10.735 L53.14,10.735 L53.14,19 L54.85,19 Z M58.63,19 L58.63,7.9 L56.92,7.9 L56.92,19 L58.63,19 Z M64.015,19.105 C64.765,19.105 65.405,18.92 65.935,18.55 C66.465,18.18 66.84,17.69 67.06,17.08 L67.06,17.08 L67.06,19 L68.77,19 L68.77,10.735 L67.06,10.735 L67.06,12.655 C66.84,12.045 66.465,11.555 65.935,11.185 C65.405,10.815 64.765,10.63 64.015,10.63 C63.295,10.63 62.6525,10.8 62.0875,11.14 C61.5225,11.48 61.08,11.97 60.76,12.61 C60.44,13.25 60.28,14 60.28,14.86 C60.28,15.73 60.44,16.485 60.76,17.125 C61.08,17.765 61.5225,18.255 62.0875,18.595 C62.6525,18.935 63.295,19.105 64.015,19.105 Z M64.54,17.59 C63.78,17.59 63.1725,17.3475 62.7175,16.8625 C62.2625,16.3775 62.035,15.71 62.035,14.86 C62.035,14.01 62.2625,13.3425 62.7175,12.8575 C63.1725,12.3725 63.78,12.13 64.54,12.13 C65.02,12.13 65.45,12.2425 65.83,12.4675 C66.21,12.6925 66.51,13.0125 66.73,13.4275 C66.95,13.8425 67.06,14.32 67.06,14.86 C67.06,15.41 66.95,15.89 66.73,16.3 C66.51,16.71 66.21,17.0275 65.83,17.2525 C65.45,17.4775 65.02,17.59 64.54,17.59 Z M72.535,19 L72.535,14.605 C72.535,13.765 72.74,13.1275 73.15,12.6925 C73.56,12.2575 74.105,12.04 74.785,12.04 C75.445,12.04 75.965,12.2425 76.345,12.6475 C76.725,13.0525 76.915,13.625 76.915,14.365 L76.915,14.365 L76.915,19 L78.625,19 L78.625,14.185 C78.625,13.035 78.335,12.15 77.755,11.53 C77.175,10.91 76.405,10.6 75.445,10.6 C74.765,10.6 74.165,10.77 73.645,11.11 C73.125,11.45 72.755,11.93 72.535,12.55 L72.535,12.55 L72.535,10.735 L70.825,10.735 L70.825,19 L72.535,19 Z M85.84,19 L85.84,15.325 L88.81,19 L90.925,19 L87.235,14.845 L90.835,10.735 L88.78,10.735 L85.84,14.26 L85.84,7.9 L84.13,7.9 L84.13,19 L85.84,19 Z M95.815,19.105 C96.615,19.105 97.335,18.935 97.975,18.595 C98.615,18.255 99.115,17.765 99.475,17.125 C99.835,16.485 100.015,15.73 100.015,14.86 C100.015,14 99.835,13.25 99.475,12.61 C99.115,11.97 98.615,11.48 97.975,11.14 C97.335,10.8 96.615,10.63 95.815,10.63 C95.015,10.63 94.2975,10.8 93.6625,11.14 C93.0275,11.48 92.5275,11.97 92.1625,12.61 C91.7975,13.25 91.615,14 91.615,14.86 C91.615,15.72 91.7975,16.4725 92.1625,17.1175 C92.5275,17.7625 93.0275,18.255 93.6625,18.595 C94.2975,18.935 95.015,19.105 95.815,19.105 Z M95.815,17.605 C95.375,17.605 94.97,17.505 94.6,17.305 C94.23,17.105 93.9325,16.8 93.7075,16.39 C93.4825,15.98 93.37,15.47 93.37,14.86 C93.37,14.26 93.4825,13.7525 93.7075,13.3375 C93.9325,12.9225 94.23,12.615 94.6,12.415 C94.97,12.215 95.375,12.115 95.815,12.115 C96.255,12.115 96.66,12.215 97.03,12.415 C97.4,12.615 97.6975,12.9225 97.9225,13.3375 C98.1475,13.7525 98.26,14.26 98.26,14.86 C98.26,15.47 98.1475,15.98 97.9225,16.39 C97.6975,16.8 97.4,17.105 97.03,17.305 C96.66,17.505 96.255,17.605 95.815,17.605 Z M103.375,19 L103.375,14.815 C103.375,13.975 103.6025,13.3725 104.0575,13.0075 C104.5125,12.6425 105.115,12.46 105.865,12.46 L105.865,12.46 L106.375,12.46 L106.375,10.6 C105.695,10.6 105.095,10.7575 104.575,11.0725 C104.055,11.3875 103.655,11.815 103.375,12.355 L103.375,12.355 L103.375,10.735 L101.665,10.735 L101.665,19 L103.375,19 Z M111.805,19 L111.805,17.515 L110.98,17.515 C110.54,17.515 110.2325,17.425 110.0575,17.245 C109.8825,17.065 109.795,16.74 109.795,16.27 L109.795,16.27 L109.795,12.19 L111.79,12.19 L111.79,10.735 L109.795,10.735 L109.795,8.68 L108.07,8.68 L108.07,10.735 L106.885,10.735 L106.885,12.19 L108.07,12.19 L108.07,16.24 C108.07,17.23 108.2975,17.9375 108.7525,18.3625 C109.2075,18.7875 109.875,19 110.755,19 L110.755,19 L111.805,19 Z M117.565,19 L117.565,17.515 L116.74,17.515 C116.3,17.515 115.9925,17.425 115.8175,17.245 C115.6425,17.065 115.555,16.74 115.555,16.27 L115.555,16.27 L115.555,12.19 L117.55,12.19 L117.55,10.735 L115.555,10.735 L115.555,8.68 L113.83,8.68 L113.83,10.735 L112.645,10.735 L112.645,12.19 L113.83,12.19 L113.83,16.24 C113.83,17.23 114.0575,17.9375 114.5125,18.3625 C114.9675,18.7875 115.635,19 116.515,19 L116.515,19 L117.565,19 Z M122.845,19.105 C123.535,19.105 124.16,18.9775 124.72,18.7225 C125.28,18.4675 125.735,18.115 126.085,17.665 C126.435,17.215 126.665,16.7 126.775,16.12 L126.775,16.12 L124.945,16.12 C124.855,16.6 124.6125,16.985 124.2175,17.275 C123.8225,17.565 123.34,17.71 122.77,17.71 C122.12,17.71 121.575,17.505 121.135,17.095 C120.695,16.685 120.46,16.055 120.43,15.205 L120.43,15.205 L126.79,15.205 C126.83,14.995 126.85,14.75 126.85,14.47 C126.85,13.75 126.6875,13.0975 126.3625,12.5125 C126.0375,11.9275 125.5725,11.4675 124.9675,11.1325 C124.3625,10.7975 123.655,10.63 122.845,10.63 C122.045,10.63 121.3375,10.8 120.7225,11.14 C120.1075,11.48 119.625,11.97 119.275,12.61 C118.925,13.25 118.75,14 118.75,14.86 C118.75,15.73 118.925,16.485 119.275,17.125 C119.625,17.765 120.1075,18.255 120.7225,18.595 C121.3375,18.935 122.045,19.105 122.845,19.105 Z M125.125,14.425 L120.43,14.425 C120.47,13.625 120.715,13.02 121.165,12.61 C121.615,12.2 122.175,11.995 122.845,11.995 C123.265,11.995 123.6525,12.0825 124.0075,12.2575 C124.3625,12.4325 124.6425,12.7025 124.8475,13.0675 C125.0525,13.4325 125.145,13.885 125.125,14.425 L125.125,14.425 Z M132.175,19.105 C132.865,19.105 133.49,18.9775 134.05,18.7225 C134.61,18.4675 135.065,18.115 135.415,17.665 C135.765,17.215 135.995,16.7 136.105,16.12 L136.105,16.12 L134.275,16.12 C134.185,16.6 133.9425,16.985 133.5475,17.275 C133.1525,17.565 132.67,17.71 132.1,17.71 C131.45,17.71 130.905,17.505 130.465,17.095 C130.025,16.685 129.79,16.055 129.76,15.205 L129.76,15.205 L136.12,15.205 C136.16,14.995 136.18,14.75 136.18,14.47 C136.18,13.75 136.0175,13.0975 135.6925,12.5125 C135.3675,11.9275 134.9025,11.4675 134.2975,11.1325 C133.6925,10.7975 132.985,10.63 132.175,10.63 C131.375,10.63 130.6675,10.8 130.0525,11.14 C129.4375,11.48 128.955,11.97 128.605,12.61 C128.255,13.25 128.08,14 128.08,14.86 C128.08,15.73 128.255,16.485 128.605,17.125 C128.955,17.765 129.4375,18.255 130.0525,18.595 C130.6675,18.935 131.375,19.105 132.175,19.105 Z M134.455,14.425 L129.76,14.425 C129.8,13.625 130.045,13.02 130.495,12.61 C130.945,12.2 131.505,11.995 132.175,11.995 C132.595,11.995 132.9825,12.0825 133.3375,12.2575 C133.6925,12.4325 133.9725,12.7025 134.1775,13.0675 C134.3825,13.4325 134.475,13.885 134.455,14.425 L134.455,14.425 Z M139.54,19 L139.54,14.815 C139.54,13.975 139.7675,13.3725 140.2225,13.0075 C140.6775,12.6425 141.28,12.46 142.03,12.46 L142.03,12.46 L142.54,12.46 L142.54,10.6 C141.86,10.6 141.26,10.7575 140.74,11.0725 C140.22,11.3875 139.82,11.815 139.54,12.355 L139.54,12.355 L139.54,10.735 L137.83,10.735 L137.83,19 L139.54,19 Z M144.67,9.31 C145,9.31 145.2675,9.22 145.4725,9.04 C145.6775,8.86 145.78,8.625 145.78,8.335 C145.78,8.045 145.6775,7.805 145.4725,7.615 C145.2675,7.425 145,7.33 144.67,7.33 C144.34,7.33 144.075,7.425 143.875,7.615 C143.675,7.805 143.575,8.045 143.575,8.335 C143.575,8.625 143.675,8.86 143.875,9.04 C144.075,9.22 144.34,9.31 144.67,9.31 Z M145.525,19 L145.525,10.735 L143.815,10.735 L143.815,19 L145.525,19 Z" id="Marttilankortteeri" fill="#0A0A0A" fill-rule="nonzero"></path>
        </g>
    </g>
</svg>