<?xml version="1.0" encoding="UTF-8"?>
<svg width="201px" height="52px" viewBox="0 0 201 52" version="1.1" xmlns="http://www.w3.org/2000/svg" xmlns:xlink="http://www.w3.org/1999/xlink">
    <title>Group 11</title>
    <g id="Page-2" stroke="none" stroke-width="1" fill="none" fill-rule="evenodd">
        <g id="Group-11" transform="translate(2.000000, 2.000000)">
            <path d="M183.170744,0 C190.859129,3.64023414e-16 197.091797,6.23266756 197.091797,13.9210526 L197.091797,14.0789474 C197.091797,21.7673324 190.859129,28 183.170744,28 L109.082,28 L99.9090648,48.0165858 C99.6789528,48.5186485 99.0854079,48.739108 98.5833453,48.508996 C98.3655138,48.4091565 98.1907746,48.2344173 98.0909352,48.0165858 L88.917,28 L13.9210526,28 C6.23266756,28 -2.03747265e-14,21.7673324 -1.42108547e-14,14.0789474 L-1.42108547e-14,13.9210526 C-1.33760535e-14,6.23266756 6.23266756,3.18869026e-15 13.9210526,0 L183.170744,0 Z" id="Combined-Shape" stroke="#FFFFFF" stroke-width="2.42105263" fill="#C5C5D4"></path>
            <path d="M17.5,5 L22,7.34782609 L22,10.0753915 L26.5,7.73913043 L31,10.0753915 L31,23 L13,23 L13,7.34782609 L17.5,5 Z M16.5217391,17.9130435 L14.9565217,17.9130435 L14.9565217,19.4782609 L16.5217391,19.4782609 L16.5217391,17.9130435 Z M20.0434783,17.9130435 L18.4782609,17.9130435 L18.4782609,19.4782609 L20.0434783,19.4782609 L20.0434783,17.9130435 Z M25.5217391,17.9130435 L23.9565217,17.9130435 L23.9565217,19.4782609 L25.5217391,19.4782609 L25.5217391,17.9130435 Z M29.0434783,17.9130435 L27.4782609,17.9130435 L27.4782609,19.4782609 L29.0434783,19.4782609 L29.0434783,17.9130435 Z M16.5217391,14.7826087 L14.9565217,14.7826087 L14.9565217,16.3478261 L16.5217391,16.3478261 L16.5217391,14.7826087 Z M20.0434783,14.7826087 L18.4782609,14.7826087 L18.4782609,16.3478261 L20.0434783,16.3478261 L20.0434783,14.7826087 Z M25.5217391,14.7826087 L23.9565217,14.7826087 L23.9565217,16.3478261 L25.5217391,16.3478261 L25.5217391,14.7826087 Z M29.0434783,14.7826087 L27.4782609,14.7826087 L27.4782609,16.3478261 L29.0434783,16.3478261 L29.0434783,14.7826087 Z M16.5217391,11.6521739 L14.9565217,11.6521739 L14.9565217,13.2173913 L16.5217391,13.2173913 L16.5217391,11.6521739 Z M20.0434783,11.6521739 L18.4782609,11.6521739 L18.4782609,13.2173913 L20.0434783,13.2173913 L20.0434783,11.6521739 Z M25.5217391,11.6521739 L23.9565217,11.6521739 L23.9565217,13.2173913 L25.5217391,13.2173913 L25.5217391,11.6521739 Z M29.0434783,11.6521739 L27.4782609,11.6521739 L27.4782609,13.2173913 L29.0434783,13.2173913 L29.0434783,11.6521739 Z M16.5217391,8.52173913 L14.9565217,8.52173913 L14.9565217,10.0869565 L16.5217391,10.0869565 L16.5217391,8.52173913 Z M20.0434783,8.52173913 L18.4782609,8.52173913 L18.4782609,10.0869565 L20.0434783,10.0869565 L20.0434783,8.52173913 Z" id="Combined-Shape" fill="#0A0A0A"></path>
            <path d="M44.25,18.79 C45.23,18.79 46.1175,18.5575 46.9125,18.0925 C47.7075,17.6275 48.3325,16.9825 48.7875,16.1575 C49.2425,15.3325 49.47,14.4 49.47,13.36 C49.47,12.32 49.2425,11.3875 48.7875,10.5625 C48.3325,9.7375 47.7075,9.095 46.9125,8.635 C46.1175,8.175 45.23,7.945 44.25,7.945 C43.26,7.945 42.3675,8.175 41.5725,8.635 C40.7775,9.095 40.15,9.7375 39.69,10.5625 C39.23,11.3875 39,12.32 39,13.36 C39,14.4 39.23,15.3325 39.69,16.1575 C40.15,16.9825 40.7775,17.6275 41.5725,18.0925 C42.3675,18.5575 43.26,18.79 44.25,18.79 Z M44.25,17.185 C43.57,17.185 42.965,17.03 42.435,16.72 C41.905,16.41 41.4925,15.965 41.1975,15.385 C40.9025,14.805 40.755,14.13 40.755,13.36 C40.755,12.59 40.9025,11.915 41.1975,11.335 C41.4925,10.755 41.905,10.31 42.435,10 C42.965,9.69 43.57,9.535 44.25,9.535 C44.92,9.535 45.5175,9.69 46.0425,10 C46.5675,10.31 46.9775,10.755 47.2725,11.335 C47.5675,11.915 47.715,12.59 47.715,13.36 C47.715,14.13 47.5675,14.805 47.2725,15.385 C46.9775,15.965 46.5675,16.41 46.0425,16.72 C45.5175,17.03 44.92,17.185 44.25,17.185 Z M52.905,22.6 L52.905,16.75 C53.115,17.36 53.485,17.85 54.015,18.22 C54.545,18.59 55.185,18.775 55.935,18.775 C56.655,18.775 57.2975,18.605 57.8625,18.265 C58.4275,17.925 58.87,17.435 59.19,16.795 C59.51,16.155 59.67,15.4 59.67,14.53 C59.67,13.67 59.51,12.92 59.19,12.28 C58.87,11.64 58.4275,11.15 57.8625,10.81 C57.2975,10.47 56.655,10.3 55.935,10.3 C55.185,10.3 54.545,10.485 54.015,10.855 C53.485,11.225 53.115,11.715 52.905,12.325 L52.905,12.325 L52.905,10.405 L51.195,10.405 L51.195,22.6 L52.905,22.6 Z M55.41,17.26 C54.93,17.26 54.5,17.1475 54.12,16.9225 C53.74,16.6975 53.44,16.38 53.22,15.97 C53,15.56 52.89,15.08 52.89,14.53 C52.89,13.99 53,13.5125 53.22,13.0975 C53.44,12.6825 53.74,12.3625 54.12,12.1375 C54.5,11.9125 54.93,11.8 55.41,11.8 C56.17,11.8 56.78,12.045 57.24,12.535 C57.7,13.025 57.93,13.69 57.93,14.53 C57.93,15.38 57.7,16.0475 57.24,16.5325 C56.78,17.0175 56.17,17.26 55.41,17.26 Z M62.175,8.98 C62.505,8.98 62.7725,8.89 62.9775,8.71 C63.1825,8.53 63.285,8.295 63.285,8.005 C63.285,7.715 63.1825,7.475 62.9775,7.285 C62.7725,7.095 62.505,7 62.175,7 C61.845,7 61.58,7.095 61.38,7.285 C61.18,7.475 61.08,7.715 61.08,8.005 C61.08,8.295 61.18,8.53 61.38,8.71 C61.58,8.89 61.845,8.98 62.175,8.98 Z M63.03,18.67 L63.03,10.405 L61.32,10.405 L61.32,18.67 L63.03,18.67 Z M68.4,18.775 C69.29,18.775 69.9975,18.56 70.5225,18.13 C71.0475,17.7 71.31,17.14 71.31,16.45 C71.31,15.89 71.1725,15.4475 70.8975,15.1225 C70.6225,14.7975 70.2925,14.56 69.9075,14.41 C69.5225,14.26 69.02,14.115 68.4,13.975 C67.93,13.865 67.5675,13.765 67.3125,13.675 C67.0575,13.585 66.845,13.46 66.675,13.3 C66.505,13.14 66.42,12.93 66.42,12.67 C66.42,12.32 66.5375,12.0425 66.7725,11.8375 C67.0075,11.6325 67.34,11.53 67.77,11.53 C68.29,11.53 68.7075,11.6675 69.0225,11.9425 C69.3375,12.2175 69.53,12.58 69.6,13.03 L69.6,13.03 L71.22,13.03 C71.09,12.2 70.7325,11.5375 70.1475,11.0425 C69.5625,10.5475 68.785,10.3 67.815,10.3 C66.885,10.3 66.1575,10.5175 65.6325,10.9525 C65.1075,11.3875 64.845,11.955 64.845,12.655 C64.845,13.195 64.9775,13.6225 65.2425,13.9375 C65.5075,14.2525 65.8275,14.48 66.2025,14.62 C66.5775,14.76 67.065,14.9 67.665,15.04 C68.135,15.14 68.505,15.2375 68.775,15.3325 C69.045,15.4275 69.27,15.56 69.45,15.73 C69.63,15.9 69.72,16.13 69.72,16.42 C69.72,16.75 69.6025,17.0225 69.3675,17.2375 C69.1325,17.4525 68.81,17.56 68.4,17.56 C67.83,17.56 67.37,17.42 67.02,17.14 C66.67,16.86 66.47,16.495 66.42,16.045 L66.42,16.045 L64.755,16.045 C64.885,16.905 65.2675,17.575 65.9025,18.055 C66.5375,18.535 67.37,18.775 68.4,18.775 Z M74.73,18.67 L74.73,14.995 L77.7,18.67 L79.815,18.67 L76.125,14.515 L79.725,10.405 L77.67,10.405 L74.73,13.93 L74.73,7.57 L73.02,7.57 L73.02,18.67 L74.73,18.67 Z M84.6,18.775 C85.29,18.775 85.915,18.6475 86.475,18.3925 C87.035,18.1375 87.49,17.785 87.84,17.335 C88.19,16.885 88.42,16.37 88.53,15.79 L88.53,15.79 L86.7,15.79 C86.61,16.27 86.3675,16.655 85.9725,16.945 C85.5775,17.235 85.095,17.38 84.525,17.38 C83.875,17.38 83.33,17.175 82.89,16.765 C82.45,16.355 82.215,15.725 82.185,14.875 L82.185,14.875 L88.545,14.875 C88.585,14.665 88.605,14.42 88.605,14.14 C88.605,13.42 88.4425,12.7675 88.1175,12.1825 C87.7925,11.5975 87.3275,11.1375 86.7225,10.8025 C86.1175,10.4675 85.41,10.3 84.6,10.3 C83.8,10.3 83.0925,10.47 82.4775,10.81 C81.8625,11.15 81.38,11.64 81.03,12.28 C80.68,12.92 80.505,13.67 80.505,14.53 C80.505,15.4 80.68,16.155 81.03,16.795 C81.38,17.435 81.8625,17.925 82.4775,18.265 C83.0925,18.605 83.8,18.775 84.6,18.775 Z M86.88,14.095 L82.185,14.095 C82.225,13.295 82.47,12.69 82.92,12.28 C83.37,11.87 83.93,11.665 84.6,11.665 C85.02,11.665 85.4075,11.7525 85.7625,11.9275 C86.1175,12.1025 86.3975,12.3725 86.6025,12.7375 C86.8075,13.1025 86.9,13.555 86.88,14.095 L86.88,14.095 Z M91.965,18.67 L91.965,7.57 L90.255,7.57 L90.255,18.67 L91.965,18.67 Z M94.89,8.98 C95.22,8.98 95.4875,8.89 95.6925,8.71 C95.8975,8.53 96,8.295 96,8.005 C96,7.715 95.8975,7.475 95.6925,7.285 C95.4875,7.095 95.22,7 94.89,7 C94.56,7 94.295,7.095 94.095,7.285 C93.895,7.475 93.795,7.715 93.795,8.005 C93.795,8.295 93.895,8.53 94.095,8.71 C94.295,8.89 94.56,8.98 94.89,8.98 Z M95.745,18.67 L95.745,10.405 L94.035,10.405 L94.035,18.67 L95.745,18.67 Z M98.745,8.98 C99.075,8.98 99.34,8.89 99.54,8.71 C99.74,8.53 99.84,8.295 99.84,8.005 C99.84,7.715 99.74,7.475 99.54,7.285 C99.34,7.095 99.075,7 98.745,7 C98.415,7 98.1475,7.095 97.9425,7.285 C97.7375,7.475 97.635,7.715 97.635,8.005 C97.635,8.295 97.7375,8.53 97.9425,8.71 C98.1475,8.89 98.415,8.98 98.745,8.98 Z M97.155,22.6 C98.795,22.6 99.615,21.785 99.615,20.155 L99.615,20.155 L99.615,10.405 L97.89,10.405 L97.89,20.14 C97.89,20.49 97.8125,20.7375 97.6575,20.8825 C97.5025,21.0275 97.26,21.1 96.93,21.1 L96.93,21.1 L96.345,21.1 L96.345,22.6 L97.155,22.6 Z M104.97,18.775 C105.72,18.775 106.36,18.59 106.89,18.22 C107.42,17.85 107.795,17.36 108.015,16.75 L108.015,16.75 L108.015,18.67 L109.725,18.67 L109.725,10.405 L108.015,10.405 L108.015,12.325 C107.795,11.715 107.42,11.225 106.89,10.855 C106.36,10.485 105.72,10.3 104.97,10.3 C104.25,10.3 103.6075,10.47 103.0425,10.81 C102.4775,11.15 102.035,11.64 101.715,12.28 C101.395,12.92 101.235,13.67 101.235,14.53 C101.235,15.4 101.395,16.155 101.715,16.795 C102.035,17.435 102.4775,17.925 103.0425,18.265 C103.6075,18.605 104.25,18.775 104.97,18.775 Z M105.495,17.26 C104.735,17.26 104.1275,17.0175 103.6725,16.5325 C103.2175,16.0475 102.99,15.38 102.99,14.53 C102.99,13.68 103.2175,13.0125 103.6725,12.5275 C104.1275,12.0425 104.735,11.8 105.495,11.8 C105.975,11.8 106.405,11.9125 106.785,12.1375 C107.165,12.3625 107.465,12.6825 107.685,13.0975 C107.905,13.5125 108.015,13.99 108.015,14.53 C108.015,15.08 107.905,15.56 107.685,15.97 C107.465,16.38 107.165,16.6975 106.785,16.9225 C106.405,17.1475 105.975,17.26 105.495,17.26 Z M116.79,13.96 L116.79,12.52 L110.61,12.52 L110.61,13.96 L116.79,13.96 Z M122.685,18.775 C123.435,18.775 124.075,18.59 124.605,18.22 C125.135,17.85 125.51,17.36 125.73,16.75 L125.73,16.75 L125.73,18.67 L127.44,18.67 L127.44,10.405 L125.73,10.405 L125.73,12.325 C125.51,11.715 125.135,11.225 124.605,10.855 C124.075,10.485 123.435,10.3 122.685,10.3 C121.965,10.3 121.3225,10.47 120.7575,10.81 C120.1925,11.15 119.75,11.64 119.43,12.28 C119.11,12.92 118.95,13.67 118.95,14.53 C118.95,15.4 119.11,16.155 119.43,16.795 C119.75,17.435 120.1925,17.925 120.7575,18.265 C121.3225,18.605 121.965,18.775 122.685,18.775 Z M123.21,17.26 C122.45,17.26 121.8425,17.0175 121.3875,16.5325 C120.9325,16.0475 120.705,15.38 120.705,14.53 C120.705,13.68 120.9325,13.0125 121.3875,12.5275 C121.8425,12.0425 122.45,11.8 123.21,11.8 C123.69,11.8 124.12,11.9125 124.5,12.1375 C124.88,12.3625 125.18,12.6825 125.4,13.0975 C125.62,13.5125 125.73,13.99 125.73,14.53 C125.73,15.08 125.62,15.56 125.4,15.97 C125.18,16.38 124.88,16.6975 124.5,16.9225 C124.12,17.1475 123.69,17.26 123.21,17.26 Z M132.795,18.775 C133.685,18.775 134.3925,18.56 134.9175,18.13 C135.4425,17.7 135.705,17.14 135.705,16.45 C135.705,15.89 135.5675,15.4475 135.2925,15.1225 C135.0175,14.7975 134.6875,14.56 134.3025,14.41 C133.9175,14.26 133.415,14.115 132.795,13.975 C132.325,13.865 131.9625,13.765 131.7075,13.675 C131.4525,13.585 131.24,13.46 131.07,13.3 C130.9,13.14 130.815,12.93 130.815,12.67 C130.815,12.32 130.9325,12.0425 131.1675,11.8375 C131.4025,11.6325 131.735,11.53 132.165,11.53 C132.685,11.53 133.1025,11.6675 133.4175,11.9425 C133.7325,12.2175 133.925,12.58 133.995,13.03 L133.995,13.03 L135.615,13.03 C135.485,12.2 135.1275,11.5375 134.5425,11.0425 C133.9575,10.5475 133.18,10.3 132.21,10.3 C131.28,10.3 130.5525,10.5175 130.0275,10.9525 C129.5025,11.3875 129.24,11.955 129.24,12.655 C129.24,13.195 129.3725,13.6225 129.6375,13.9375 C129.9025,14.2525 130.2225,14.48 130.5975,14.62 C130.9725,14.76 131.46,14.9 132.06,15.04 C132.53,15.14 132.9,15.2375 133.17,15.3325 C133.44,15.4275 133.665,15.56 133.845,15.73 C134.025,15.9 134.115,16.13 134.115,16.42 C134.115,16.75 133.9975,17.0225 133.7625,17.2375 C133.5275,17.4525 133.205,17.56 132.795,17.56 C132.225,17.56 131.765,17.42 131.415,17.14 C131.065,16.86 130.865,16.495 130.815,16.045 L130.815,16.045 L129.15,16.045 C129.28,16.905 129.6625,17.575 130.2975,18.055 C130.9325,18.535 131.765,18.775 132.795,18.775 Z M140.4,18.79 C141.09,18.79 141.695,18.6225 142.215,18.2875 C142.735,17.9525 143.1,17.48 143.31,16.87 L143.31,16.87 L143.31,18.67 L145.035,18.67 L145.035,10.405 L143.31,10.405 L143.31,14.785 C143.31,15.625 143.105,16.265 142.695,16.705 C142.285,17.145 141.74,17.365 141.06,17.365 C140.4,17.365 139.88,17.1625 139.5,16.7575 C139.12,16.3525 138.93,15.775 138.93,15.025 L138.93,15.025 L138.93,10.405 L137.22,10.405 L137.22,15.205 C137.22,16.355 137.51,17.24 138.09,17.86 C138.67,18.48 139.44,18.79 140.4,18.79 Z M148.8,18.67 L148.8,14.275 C148.8,13.435 149.005,12.7975 149.415,12.3625 C149.825,11.9275 150.37,11.71 151.05,11.71 C151.71,11.71 152.23,11.9125 152.61,12.3175 C152.99,12.7225 153.18,13.295 153.18,14.035 L153.18,14.035 L153.18,18.67 L154.89,18.67 L154.89,13.855 C154.89,12.705 154.6,11.82 154.02,11.2 C153.44,10.58 152.67,10.27 151.71,10.27 C151.03,10.27 150.43,10.44 149.91,10.78 C149.39,11.12 149.02,11.6 148.8,12.22 L148.8,12.22 L148.8,10.405 L147.09,10.405 L147.09,18.67 L148.8,18.67 Z M161.04,18.67 L161.04,17.185 L160.215,17.185 C159.775,17.185 159.4675,17.095 159.2925,16.915 C159.1175,16.735 159.03,16.41 159.03,15.94 L159.03,15.94 L159.03,11.86 L161.025,11.86 L161.025,10.405 L159.03,10.405 L159.03,8.35 L157.305,8.35 L157.305,10.405 L156.12,10.405 L156.12,11.86 L157.305,11.86 L157.305,15.91 C157.305,16.9 157.5325,17.6075 157.9875,18.0325 C158.4425,18.4575 159.11,18.67 159.99,18.67 L159.99,18.67 L161.04,18.67 Z M166.425,18.775 C167.225,18.775 167.945,18.605 168.585,18.265 C169.225,17.925 169.725,17.435 170.085,16.795 C170.445,16.155 170.625,15.4 170.625,14.53 C170.625,13.67 170.445,12.92 170.085,12.28 C169.725,11.64 169.225,11.15 168.585,10.81 C167.945,10.47 167.225,10.3 166.425,10.3 C165.625,10.3 164.9075,10.47 164.2725,10.81 C163.6375,11.15 163.1375,11.64 162.7725,12.28 C162.4075,12.92 162.225,13.67 162.225,14.53 C162.225,15.39 162.4075,16.1425 162.7725,16.7875 C163.1375,17.4325 163.6375,17.925 164.2725,18.265 C164.9075,18.605 165.625,18.775 166.425,18.775 Z M166.425,17.275 C165.985,17.275 165.58,17.175 165.21,16.975 C164.84,16.775 164.5425,16.47 164.3175,16.06 C164.0925,15.65 163.98,15.14 163.98,14.53 C163.98,13.93 164.0925,13.4225 164.3175,13.0075 C164.5425,12.5925 164.84,12.285 165.21,12.085 C165.58,11.885 165.985,11.785 166.425,11.785 C166.865,11.785 167.27,11.885 167.64,12.085 C168.01,12.285 168.3075,12.5925 168.5325,13.0075 C168.7575,13.4225 168.87,13.93 168.87,14.53 C168.87,15.14 168.7575,15.65 168.5325,16.06 C168.3075,16.47 168.01,16.775 167.64,16.975 C167.27,17.175 166.865,17.275 166.425,17.275 Z M173.205,8.98 C173.535,8.98 173.8,8.89 174,8.71 C174.2,8.53 174.3,8.295 174.3,8.005 C174.3,7.715 174.2,7.475 174,7.285 C173.8,7.095 173.535,7 173.205,7 C172.875,7 172.6075,7.095 172.4025,7.285 C172.1975,7.475 172.095,7.715 172.095,8.005 C172.095,8.295 172.1975,8.53 172.4025,8.71 C172.6075,8.89 172.875,8.98 173.205,8.98 Z M171.615,22.6 C173.255,22.6 174.075,21.785 174.075,20.155 L174.075,20.155 L174.075,10.405 L172.35,10.405 L172.35,20.14 C172.35,20.49 172.2725,20.7375 172.1175,20.8825 C171.9625,21.0275 171.72,21.1 171.39,21.1 L171.39,21.1 L170.805,21.1 L170.805,22.6 L171.615,22.6 Z M179.43,18.775 C180.18,18.775 180.82,18.59 181.35,18.22 C181.88,17.85 182.255,17.36 182.475,16.75 L182.475,16.75 L182.475,18.67 L184.185,18.67 L184.185,10.405 L182.475,10.405 L182.475,12.325 C182.255,11.715 181.88,11.225 181.35,10.855 C180.82,10.485 180.18,10.3 179.43,10.3 C178.71,10.3 178.0675,10.47 177.5025,10.81 C176.9375,11.15 176.495,11.64 176.175,12.28 C175.855,12.92 175.695,13.67 175.695,14.53 C175.695,15.4 175.855,16.155 176.175,16.795 C176.495,17.435 176.9375,17.925 177.5025,18.265 C178.0675,18.605 178.71,18.775 179.43,18.775 Z M179.955,17.26 C179.195,17.26 178.5875,17.0175 178.1325,16.5325 C177.6775,16.0475 177.45,15.38 177.45,14.53 C177.45,13.68 177.6775,13.0125 178.1325,12.5275 C178.5875,12.0425 179.195,11.8 179.955,11.8 C180.435,11.8 180.865,11.9125 181.245,12.1375 C181.625,12.3625 181.925,12.6825 182.145,13.0975 C182.365,13.5125 182.475,13.99 182.475,14.53 C182.475,15.08 182.365,15.56 182.145,15.97 C181.925,16.38 181.625,16.6975 181.245,16.9225 C180.865,17.1475 180.435,17.26 179.955,17.26 Z" id="Opiskelija-asuntoja" fill="#0A0A0A" fill-rule="nonzero"></path>
        </g>
    </g>
</svg>