<?xml version="1.0" encoding="UTF-8"?>
<svg width="32px" height="32px" viewBox="0 0 32 32" version="1.1" xmlns="http://www.w3.org/2000/svg" xmlns:xlink="http://www.w3.org/1999/xlink">
    <title>sign-icon</title>
    <g id="Page-2" stroke="none" stroke-width="1" fill="none" fill-rule="evenodd">
        <g id="sign-icon">
            <path d="M16,0 C7.163444,0 0,7.163444 0,16 C0,24.836556 7.163444,32 16,32 C24.836556,32 32,24.836556 32,16 C32,7.163444 24.836556,0 16,0 Z M16,1.88235294 C23.7969612,1.88235294 30.1176471,8.20303883 30.1176471,16 C30.1176471,23.7969612 23.7969612,30.1176471 16,30.1176471 C8.20303883,30.1176471 1.88235294,23.7969612 1.88235294,16 C1.88235294,8.20303883 8.20303883,1.88235294 16,1.88235294 Z" id="Oval" fill="#FFFFFF" fill-rule="nonzero"></path>
            <circle id="Oval" stroke="#FFFFFF" stroke-width="1.88235294" fill="#201751" cx="16" cy="16" r="15.0588235"></circle>
            <polygon id="Rectangle" fill="#FFFFFF" points="10.3529412 9.41176471 22.5882353 9.41176471 24.4705882 11.2941176 22.5882353 13.1764706 10.3529412 13.1764706"></polygon>
            <polygon id="Rectangle" fill="#FFFFFF" transform="translate(14.588235, 16.941176) scale(-1, 1) translate(-14.588235, -16.941176) " points="7.52941176 15.0588235 19.7647059 15.0588235 21.6470588 16.9411765 19.7647059 18.8235294 7.52941176 18.8235294"></polygon>
            <polygon id="Rectangle" fill="#FFFFFF" points="15.0588235 19.7647059 16.9411765 19.7647059 16.9411765 26.3529412 15.0588235 26.3529412"></polygon>
            <polygon id="Rectangle" fill="#FFFFFF" points="14.1176471 5.64705882 17.8823529 5.64705882 16.9411765 7.58616728 16.9411765 8.47058824 15.0588235 8.47058824 15.0588235 7.57973346"></polygon>
        </g>
    </g>
</svg>